<svg width="1211" height="418" viewBox="0 0 1211 418" fill="none" xmlns="http://www.w3.org/2000/svg">
<g opacity="0.2">
<path d="M1184.09 270.703C1180.99 271.241 1177.81 274.572 1176.6 276.169C1171.45 276.954 1160.87 278.341 1159.69 277.605C1158.51 276.87 1151.36 191.034 1147.93 148.208L1153.54 141.174C1156.36 142.779 1168.84 145.823 1174.73 147.144L1185.16 153.995C1186.53 157.362 1190.78 160.912 1192.74 162.266L1200.57 174.082C1200.84 178.926 1203.93 183.276 1205.45 184.846L1208.72 198.553C1207.72 206.895 1209.15 209.372 1209.99 209.569L1208.72 224.873C1207.18 226.757 1206.9 232.442 1206.96 235.048L1200.4 250.353C1197.71 251.833 1196.36 256.352 1196.03 258.426L1184.09 270.703Z" fill="#C24704"/>
<path fill-rule="evenodd" clip-rule="evenodd" d="M1154.71 141.943C1154.21 142.001 1153.91 142.082 1153.87 142.189C1153.59 143.037 1157.95 147.468 1161.46 148.128C1163.86 148.579 1170.64 148.098 1175.09 147.674C1178.91 149.688 1182.52 152.185 1185.87 155.102C1183.13 155.091 1180.77 155.185 1179.83 155.481C1177.11 156.341 1174.39 157.889 1177.11 159.954C1179.38 161.672 1183 163.51 1193.13 162.589C1196.15 166.26 1198.84 170.332 1201.14 174.733C1197.04 175.478 1192.75 176.808 1192.47 178.876C1192.05 181.904 1192.99 184.152 1193.51 184.897H1205.54C1207.13 189.45 1208.34 194.248 1209.12 199.23C1205.66 199.64 1199.95 200.524 1199.17 201.962C1197.76 204.565 1199.27 209.971 1200.48 209.971H1210.1C1210.12 210.783 1210.13 211.598 1210.13 212.416C1210.13 216.817 1209.8 221.125 1209.16 225.303C1206.01 225.364 1201.97 225.627 1200.48 226.378C1198.04 227.612 1196.02 231.623 1196.95 234.94L1206.96 235.443C1205.39 240.962 1203.27 246.17 1200.68 250.972H1191.72C1188.4 250.972 1186.41 255.874 1186.78 256.251C1187 256.462 1191.65 257.517 1196.02 258.465C1192.57 263.321 1188.57 267.6 1184.16 271.168C1180.2 270.651 1175.68 270.157 1173.98 270.579C1170.95 271.334 1165.64 273.973 1167.53 274.916C1168.39 275.341 1172.42 275.826 1176.76 276.235C1169.7 280.283 1161.85 282.659 1153.58 282.94V282.969H1151.95C1151.94 282.969 1151.92 282.969 1151.91 282.969C1151.9 282.969 1151.89 282.969 1151.88 282.969H1128.19V276.867C1107.86 265.862 1093.69 241.144 1093.69 212.416C1093.69 183.687 1107.86 158.969 1128.19 147.964V141.863H1151.91H1153.58V141.891C1153.96 141.904 1154.33 141.921 1154.71 141.943Z" fill="#FEF302"/>
<path fill-rule="evenodd" clip-rule="evenodd" d="M1154.71 141.082C1154.21 141.141 1153.91 141.222 1153.87 141.33C1153.59 142.183 1157.95 146.641 1161.46 147.305C1163.86 147.759 1170.64 147.275 1175.09 146.848C1178.91 148.874 1182.52 151.387 1185.87 154.322C1183.13 154.31 1180.77 154.405 1179.83 154.703C1177.11 155.569 1174.39 157.126 1177.11 159.203C1179.38 160.932 1183 162.781 1193.13 161.854C1196.15 165.548 1198.84 169.644 1201.14 174.073C1197.04 174.822 1192.75 176.16 1192.47 178.241C1192.05 181.287 1192.99 183.549 1193.51 184.299H1205.54C1207.13 188.879 1208.34 193.706 1209.12 198.72C1205.66 199.131 1199.95 200.021 1199.17 201.468C1197.76 204.087 1199.27 209.526 1200.48 209.526H1210.1C1210.12 210.342 1210.13 211.162 1210.13 211.985C1210.13 216.414 1209.8 220.748 1209.16 224.952C1206.01 225.012 1201.97 225.277 1200.48 226.033C1198.04 227.274 1196.02 231.31 1196.95 234.647L1206.96 235.153C1205.39 240.705 1203.27 245.946 1200.68 250.777H1191.72C1188.4 250.777 1186.41 255.709 1186.78 256.088C1187 256.301 1191.65 257.362 1196.02 258.316C1192.57 263.202 1188.57 267.507 1184.16 271.096C1180.2 270.576 1175.68 270.079 1173.98 270.504C1170.95 271.263 1165.64 273.918 1167.53 274.867C1168.39 275.294 1172.42 275.782 1176.76 276.195C1169.7 280.267 1161.85 282.657 1153.58 282.94V282.969H1151.95C1151.94 282.969 1151.92 282.969 1151.91 282.969C1151.9 282.969 1151.89 282.969 1151.88 282.969H1128.19V276.83C1107.86 265.758 1093.69 240.889 1093.69 211.985C1093.69 183.081 1107.86 158.212 1128.19 147.14V141.002H1151.91H1153.58V141.03C1153.96 141.043 1154.33 141.061 1154.71 141.082Z" fill="url(#paint0_linear_11_587)"/>
<path d="M1187.59 212.008C1187.59 246.741 1161.65 274.897 1129.64 274.897C1097.63 274.897 1071.68 246.741 1071.68 212.008C1071.68 177.275 1097.63 149.118 1129.64 149.118C1161.65 149.118 1187.59 177.275 1187.59 212.008Z" fill="url(#paint1_radial_11_587)"/>
<path fill-rule="evenodd" clip-rule="evenodd" d="M1129.59 282.969C1166.36 282.969 1196.17 251.189 1196.17 211.985C1196.17 172.782 1166.36 141.002 1129.59 141.002C1092.81 141.002 1063 172.782 1063 211.985C1063 251.189 1092.81 282.969 1129.59 282.969ZM1126.85 271.364C1156.72 271.364 1180.93 244.769 1180.93 211.963C1180.93 179.156 1156.72 152.561 1126.85 152.561C1096.97 152.561 1072.76 179.156 1072.76 211.963C1072.76 244.769 1096.97 271.364 1126.85 271.364Z" fill="url(#paint2_linear_11_587)"/>
<g filter="url(#filter0_f_11_587)">
<path d="M1101.21 182.254L1101.1 184.192L1102.27 185.344L1100.63 185.487L1099.48 187.052L1099.59 185.114L1098.42 183.961L1100.06 183.818L1101.21 182.254Z" fill="white" fill-opacity="0.8"/>
<path d="M1111.29 264.775L1111.3 267.612L1113.22 269.258L1110.71 269.522L1109.08 271.847L1109.07 269.01L1107.15 267.363L1109.67 267.1L1111.29 264.775Z" fill="white" fill-opacity="0.7"/>
<path d="M1180.68 162.688L1181.68 165.392L1184.38 166.393L1181.68 167.393L1180.68 170.097L1179.68 167.393L1176.98 166.393L1179.68 165.392L1180.68 162.688Z" fill="white"/>
</g>
<path d="M1163.88 210.362C1160.68 195.9 1155.86 188.181 1148.72 186.072C1147.22 185.632 1145.67 185.412 1144.1 185.419C1142.03 185.419 1140.23 185.923 1138.33 186.457C1136.03 187.101 1133.43 187.832 1129.63 187.832C1125.82 187.832 1123.22 187.102 1120.92 186.458C1119.01 185.923 1117.21 185.419 1115.15 185.419C1113.53 185.414 1111.92 185.633 1110.37 186.071C1103.26 188.17 1098.45 195.886 1095.21 210.353C1091.72 225.921 1093.44 235.751 1100.02 238.031C1100.93 238.349 1101.88 238.514 1102.84 238.517C1107.35 238.517 1110.97 234.757 1113.44 231.678C1116.23 228.194 1119.51 226.427 1129.63 226.427C1138.67 226.427 1142.41 227.653 1145.64 231.678C1147.67 234.209 1149.59 235.98 1151.5 237.094C1154.05 238.576 1156.6 238.904 1159.07 238.055C1162.96 236.726 1165.19 233.214 1165.7 227.612C1166.09 223.317 1165.49 217.674 1163.88 210.362ZM1122.39 209.551H1117.56V214.377C1117.56 215.017 1117.31 215.631 1116.86 216.084C1116.4 216.536 1115.79 216.79 1115.15 216.79C1114.51 216.79 1113.9 216.536 1113.44 216.084C1112.99 215.631 1112.74 215.017 1112.74 214.377V209.551H1107.91C1107.27 209.551 1106.66 209.297 1106.21 208.844C1105.75 208.392 1105.5 207.778 1105.5 207.138C1105.5 206.498 1105.75 205.884 1106.21 205.431C1106.66 204.979 1107.27 204.725 1107.91 204.725H1112.74V199.898C1112.74 199.258 1112.99 198.644 1113.44 198.192C1113.9 197.739 1114.51 197.485 1115.15 197.485C1115.79 197.485 1116.4 197.739 1116.86 198.192C1117.31 198.644 1117.56 199.258 1117.56 199.898V204.725H1122.39C1123.03 204.725 1123.64 204.979 1124.09 205.431C1124.55 205.884 1124.8 206.498 1124.8 207.138C1124.8 207.778 1124.55 208.392 1124.09 208.844C1123.64 209.297 1123.03 209.551 1122.39 209.551ZM1135.05 210.154C1134.46 210.154 1133.88 209.977 1133.38 209.646C1132.88 209.314 1132.5 208.843 1132.27 208.292C1132.04 207.741 1131.98 207.134 1132.1 206.549C1132.21 205.964 1132.5 205.427 1132.92 205.005C1133.34 204.583 1133.88 204.296 1134.47 204.179C1135.05 204.063 1135.66 204.123 1136.21 204.351C1136.76 204.579 1137.23 204.966 1137.56 205.462C1137.89 205.958 1138.07 206.541 1138.07 207.138C1138.07 207.938 1137.75 208.705 1137.19 209.271C1136.62 209.836 1135.85 210.154 1135.05 210.154ZM1141.69 216.79C1141.09 216.79 1140.51 216.613 1140.01 216.282C1139.52 215.95 1139.13 215.478 1138.9 214.927C1138.67 214.375 1138.62 213.768 1138.73 213.183C1138.85 212.597 1139.14 212.06 1139.56 211.638C1139.98 211.217 1140.52 210.93 1141.11 210.815C1141.69 210.699 1142.3 210.76 1142.85 210.989C1143.4 211.219 1143.87 211.607 1144.2 212.104C1144.53 212.601 1144.71 213.185 1144.71 213.782C1144.7 214.58 1144.38 215.346 1143.82 215.91C1143.25 216.474 1142.49 216.79 1141.69 216.79ZM1141.69 203.518C1141.09 203.518 1140.51 203.341 1140.01 203.01C1139.52 202.678 1139.13 202.207 1138.9 201.656C1138.67 201.105 1138.62 200.498 1138.73 199.913C1138.85 199.328 1139.14 198.79 1139.56 198.369C1139.98 197.947 1140.52 197.659 1141.1 197.543C1141.69 197.427 1142.29 197.486 1142.84 197.715C1143.39 197.943 1143.87 198.33 1144.2 198.826C1144.53 199.322 1144.71 199.905 1144.71 200.502C1144.71 201.302 1144.39 202.069 1143.82 202.634C1143.26 203.2 1142.49 203.518 1141.69 203.518ZM1148.32 210.154C1147.73 210.154 1147.14 209.977 1146.65 209.646C1146.15 209.314 1145.77 208.843 1145.54 208.292C1145.31 207.741 1145.25 207.134 1145.37 206.549C1145.48 205.964 1145.77 205.427 1146.19 205.005C1146.61 204.583 1147.15 204.296 1147.74 204.179C1148.32 204.063 1148.93 204.123 1149.48 204.351C1150.03 204.579 1150.5 204.966 1150.83 205.462C1151.16 205.958 1151.34 206.541 1151.34 207.138C1151.34 207.938 1151.02 208.705 1150.46 209.271C1149.89 209.836 1149.12 210.154 1148.32 210.154Z" fill="#C24704"/>
<path d="M1161.73 209.573C1158.53 195.11 1153.72 187.391 1146.58 185.283C1145.08 184.842 1143.52 184.622 1141.96 184.63C1139.89 184.63 1138.09 185.133 1136.19 185.667C1133.89 186.311 1131.28 187.043 1127.48 187.043C1123.68 187.043 1121.07 186.313 1118.77 185.669C1116.87 185.133 1115.07 184.63 1113.01 184.63C1111.39 184.624 1109.78 184.843 1108.22 185.281C1101.12 187.381 1096.31 195.097 1093.07 209.564C1089.58 225.132 1091.29 234.961 1097.88 237.242C1098.79 237.56 1099.74 237.724 1100.69 237.727C1105.21 237.727 1108.82 233.967 1111.3 230.889C1114.09 227.405 1117.36 225.637 1127.48 225.637C1136.52 225.637 1140.26 226.863 1143.5 230.889C1145.53 233.42 1147.45 235.191 1149.36 236.305C1151.91 237.786 1154.45 238.115 1156.92 237.266C1160.82 235.937 1163.05 232.424 1163.56 226.823C1163.95 222.527 1163.35 216.885 1161.73 209.573ZM1120.25 208.762H1115.42V213.588C1115.42 214.228 1115.17 214.842 1114.71 215.294C1114.26 215.747 1113.65 216.001 1113.01 216.001C1112.37 216.001 1111.75 215.747 1111.3 215.294C1110.85 214.842 1110.6 214.228 1110.6 213.588V208.762H1105.77C1105.13 208.762 1104.52 208.507 1104.06 208.055C1103.61 207.602 1103.36 206.988 1103.36 206.348C1103.36 205.708 1103.61 205.094 1104.06 204.642C1104.52 204.189 1105.13 203.935 1105.77 203.935H1110.6V199.109C1110.6 198.469 1110.85 197.855 1111.3 197.402C1111.75 196.95 1112.37 196.696 1113.01 196.696C1113.65 196.696 1114.26 196.95 1114.71 197.402C1115.17 197.855 1115.42 198.469 1115.42 199.109V203.935H1120.25C1120.89 203.935 1121.5 204.189 1121.95 204.642C1122.4 205.094 1122.66 205.708 1122.66 206.348C1122.66 206.988 1122.4 207.602 1121.95 208.055C1121.5 208.507 1120.89 208.762 1120.25 208.762ZM1132.91 209.365C1132.32 209.365 1131.73 209.188 1131.24 208.856C1130.74 208.525 1130.35 208.054 1130.13 207.503C1129.9 206.951 1129.84 206.345 1129.95 205.76C1130.07 205.175 1130.36 204.637 1130.78 204.215C1131.2 203.793 1131.74 203.506 1132.32 203.39C1132.91 203.273 1133.51 203.333 1134.07 203.561C1134.62 203.79 1135.09 204.176 1135.42 204.672C1135.75 205.168 1135.93 205.752 1135.93 206.348C1135.93 207.148 1135.61 207.916 1135.04 208.481C1134.48 209.047 1133.71 209.365 1132.91 209.365ZM1139.55 216.001C1138.95 216.001 1138.37 215.824 1137.87 215.492C1137.37 215.16 1136.99 214.689 1136.76 214.137C1136.53 213.586 1136.47 212.979 1136.59 212.393C1136.71 211.808 1136.99 211.271 1137.42 210.849C1137.84 210.427 1138.38 210.141 1138.96 210.025C1139.55 209.91 1140.15 209.97 1140.71 210.2C1141.26 210.429 1141.73 210.817 1142.06 211.314C1142.39 211.811 1142.56 212.395 1142.56 212.992C1142.56 213.791 1142.24 214.556 1141.68 215.12C1141.11 215.684 1140.35 216.001 1139.55 216.001ZM1139.55 202.729C1138.95 202.729 1138.37 202.552 1137.87 202.22C1137.38 201.889 1136.99 201.418 1136.76 200.866C1136.53 200.315 1136.47 199.709 1136.59 199.124C1136.71 198.538 1136.99 198.001 1137.41 197.579C1137.84 197.157 1138.37 196.87 1138.96 196.753C1139.54 196.637 1140.15 196.697 1140.7 196.925C1141.25 197.153 1141.72 197.54 1142.05 198.036C1142.39 198.532 1142.56 199.115 1142.56 199.712C1142.56 200.512 1142.24 201.279 1141.68 201.845C1141.11 202.411 1140.35 202.729 1139.55 202.729ZM1146.18 209.365C1145.58 209.365 1145 209.188 1144.51 208.856C1144.01 208.525 1143.62 208.054 1143.4 207.503C1143.17 206.951 1143.11 206.345 1143.22 205.76C1143.34 205.175 1143.63 204.637 1144.05 204.215C1144.47 203.793 1145.01 203.506 1145.59 203.39C1146.18 203.273 1146.78 203.333 1147.34 203.561C1147.89 203.79 1148.36 204.176 1148.69 204.672C1149.02 205.168 1149.2 205.752 1149.2 206.348C1149.2 207.148 1148.88 207.916 1148.31 208.481C1147.75 209.047 1146.98 209.365 1146.18 209.365Z" fill="url(#paint3_linear_11_587)"/>
</g>
<g opacity="0.5">
<path d="M1009.34 332.976C1002.96 334.085 996.4 340.947 993.916 344.239C983.311 345.857 961.494 348.713 959.07 347.198C956.646 345.683 941.901 168.815 934.831 80.5706L946.401 66.0759C952.21 69.3834 977.93 75.6556 990.064 78.3782L1011.54 92.4955C1014.37 99.4332 1023.14 106.747 1027.17 109.537L1043.3 133.885C1043.85 143.865 1050.23 152.829 1053.35 156.064L1060.11 184.307C1058.03 201.496 1060.97 206.602 1062.71 207.006L1060.11 238.542C1056.92 242.423 1056.35 254.137 1056.47 259.508L1042.95 291.044C1037.41 294.094 1034.64 303.404 1033.94 307.678L1009.34 332.976Z" fill="#C24704"/>
<path fill-rule="evenodd" clip-rule="evenodd" d="M948.811 67.6613C947.779 67.7814 947.161 67.9471 947.087 68.168C946.501 69.9162 955.49 79.0454 962.721 80.405C967.667 81.3352 981.635 80.3432 990.793 79.4694C998.676 83.6192 1006.12 88.7652 1013.02 94.7763C1007.36 94.7522 1002.51 94.9465 1000.58 95.5572C994.966 97.3295 989.356 100.52 994.966 104.773C999.636 108.314 1007.09 112.1 1027.97 110.203C1034.2 117.767 1039.74 126.157 1044.48 135.227C1036.02 136.761 1027.19 139.501 1026.61 143.764C1025.75 150.002 1027.68 154.634 1028.75 156.17H1053.54C1056.82 165.551 1059.31 175.437 1060.91 185.704C1053.79 186.548 1042.03 188.37 1040.42 191.333C1037.51 196.696 1040.63 207.835 1043.12 207.835H1062.93C1062.98 209.508 1063 211.187 1063 212.873C1063 221.942 1062.32 230.818 1061.01 239.428C1054.52 239.552 1046.18 240.094 1043.12 241.642C1038.09 244.185 1033.93 252.45 1035.85 259.285L1056.47 260.322C1053.23 271.692 1048.86 282.424 1043.52 292.319H1025.06C1018.22 292.319 1014.12 302.42 1014.9 303.197C1015.34 303.632 1024.93 305.806 1033.93 307.759C1026.81 317.765 1018.59 326.583 1009.48 333.933C1001.34 332.869 992.018 331.851 988.517 332.721C982.263 334.275 971.32 339.714 975.228 341.656C976.99 342.532 985.291 343.531 994.252 344.375C979.694 352.716 963.529 357.611 946.473 358.191V358.249H943.115C943.091 358.249 943.066 358.249 943.041 358.249C943.017 358.249 942.992 358.249 942.968 358.249H894.168V345.677C852.275 323.001 823.079 272.069 823.079 212.873C823.079 153.677 852.275 102.744 894.168 80.0684V67.4961H943.041H946.473V67.5544C947.254 67.581 948.034 67.6167 948.811 67.6613Z" fill="#FEF302"/>
<path fill-rule="evenodd" clip-rule="evenodd" d="M948.811 65.8872C947.779 66.008 947.161 66.1747 947.087 66.397C946.501 68.1558 955.49 77.3407 962.721 78.7087C967.667 79.6445 981.635 78.6464 990.793 77.7673C998.676 81.9425 1006.12 87.1199 1013.02 93.1677C1007.36 93.1435 1002.51 93.3389 1000.58 93.9533C994.966 95.7364 989.356 98.9461 994.966 103.226C999.636 106.788 1007.09 110.597 1027.97 108.688C1034.2 116.298 1039.74 124.74 1044.48 133.865C1036.02 135.409 1027.19 138.166 1026.61 142.454C1025.75 148.731 1027.68 153.39 1028.75 154.936H1053.54C1056.82 164.375 1059.31 174.32 1060.91 184.65C1053.79 185.499 1042.03 187.332 1040.42 190.314C1037.51 195.71 1040.63 206.917 1043.12 206.917H1062.93C1062.98 208.599 1063 210.289 1063 211.985C1063 221.11 1062.32 230.04 1061.01 238.702C1054.52 238.828 1046.18 239.373 1043.12 240.93C1038.09 243.489 1033.93 251.804 1035.85 258.681L1056.47 259.724C1053.23 271.164 1048.86 281.961 1043.52 291.917H1025.06C1018.22 291.917 1014.12 302.079 1014.9 302.86C1015.34 303.298 1024.93 305.485 1033.93 307.451C1026.81 317.518 1018.59 326.389 1009.48 333.784C1001.34 332.714 992.018 331.69 988.517 332.565C982.263 334.128 971.32 339.6 975.228 341.555C976.99 342.436 985.291 343.441 994.252 344.29C979.694 352.682 963.529 357.606 946.473 358.191V358.249H943.115C943.091 358.249 943.066 358.249 943.041 358.249C943.017 358.249 942.992 358.249 942.968 358.249H894.168V345.6C852.275 322.786 823.079 271.543 823.079 211.985C823.079 152.428 852.275 101.184 894.168 78.37V65.7209H943.041H946.473V65.7796C947.254 65.8064 948.034 65.8423 948.811 65.8872Z" fill="url(#paint4_linear_11_587)"/>
<path d="M1016.57 212.032C1016.57 283.6 963.102 341.618 897.149 341.618C831.196 341.618 777.73 283.6 777.73 212.032C777.73 140.463 831.196 82.4456 897.149 82.4456C963.102 82.4456 1016.57 140.463 1016.57 212.032Z" fill="url(#paint5_radial_11_587)"/>
<path fill-rule="evenodd" clip-rule="evenodd" d="M897.045 358.249C972.819 358.249 1034.25 292.765 1034.25 211.985C1034.25 131.206 972.819 65.7209 897.045 65.7209C821.271 65.7209 759.844 131.206 759.844 211.985C759.844 292.765 821.271 358.249 897.045 358.249ZM891.393 334.337C952.945 334.337 1002.84 279.537 1002.84 211.938C1002.84 144.339 952.945 89.5394 891.393 89.5394C829.841 89.5394 779.943 144.339 779.943 211.938C779.943 279.537 829.841 334.337 891.393 334.337Z" fill="url(#paint6_linear_11_587)"/>
<g filter="url(#filter1_f_11_587)">
<path d="M838.568 150.724L838.34 154.717L840.752 157.091L837.38 157.387L835.013 160.61L835.24 156.617L832.829 154.243L836.201 153.947L838.568 150.724Z" fill="white" fill-opacity="0.8"/>
<path d="M859.344 320.76L859.371 326.606L863.32 329.999L858.142 330.542L854.793 335.333L854.765 329.487L850.816 326.094L855.994 325.551L859.344 320.76Z" fill="white" fill-opacity="0.7"/>
<path d="M1002.32 110.408L1004.38 115.979L1009.95 118.041L1004.38 120.103L1002.32 125.674L1000.26 120.103L994.688 118.041L1000.26 115.979L1002.32 110.408Z" fill="white"/>
</g>
<path d="M967.693 208.641C961.103 178.841 951.185 162.935 936.473 158.59C933.381 157.683 930.173 157.23 926.95 157.245C922.69 157.245 918.98 158.283 915.056 159.383C910.327 160.71 904.955 162.217 897.122 162.217C889.289 162.217 883.914 160.713 879.176 159.386C875.248 158.283 871.542 157.245 867.294 157.245C863.962 157.233 860.644 157.685 857.435 158.587C842.801 162.913 832.89 178.813 826.203 208.623C819.013 240.701 822.552 260.955 836.127 265.654C837.988 266.31 839.946 266.648 841.919 266.654C851.218 266.654 858.675 258.907 863.771 252.564C869.528 245.385 876.267 241.742 897.122 241.742C915.749 241.742 923.458 244.269 930.116 252.564C934.301 257.778 938.257 261.427 942.203 263.724C947.45 266.775 952.695 267.453 957.788 265.703C965.81 262.965 970.409 255.727 971.459 244.185C972.257 235.334 971.027 223.708 967.693 208.641ZM882.208 206.969H872.265V216.914C872.265 218.233 871.742 219.498 870.809 220.43C869.877 221.363 868.613 221.887 867.294 221.887C865.976 221.887 864.711 221.363 863.779 220.43C862.847 219.498 862.323 218.233 862.323 216.914V206.969H852.38C851.062 206.969 849.797 206.445 848.865 205.513C847.933 204.58 847.409 203.316 847.409 201.997C847.409 200.678 847.933 199.413 848.865 198.481C849.797 197.548 851.062 197.024 852.38 197.024H862.323V187.079C862.323 185.761 862.847 184.496 863.779 183.563C864.711 182.631 865.976 182.107 867.294 182.107C868.613 182.107 869.877 182.631 870.809 183.563C871.742 184.496 872.265 185.761 872.265 187.079V197.024H882.208C883.527 197.024 884.791 197.548 885.723 198.481C886.656 199.413 887.179 200.678 887.179 201.997C887.179 203.316 886.656 204.58 885.723 205.513C884.791 206.445 883.527 206.969 882.208 206.969ZM908.308 208.212C907.078 208.212 905.877 207.848 904.855 207.165C903.833 206.482 903.037 205.511 902.566 204.375C902.096 203.24 901.973 201.99 902.213 200.784C902.453 199.579 903.044 198.471 903.913 197.602C904.783 196.732 905.89 196.141 907.095 195.901C908.301 195.661 909.55 195.784 910.686 196.254C911.821 196.725 912.792 197.521 913.474 198.544C914.157 199.566 914.522 200.767 914.522 201.997C914.522 203.645 913.867 205.226 912.702 206.392C911.536 207.558 909.956 208.212 908.308 208.212ZM921.979 221.887C920.749 221.887 919.547 221.522 918.525 220.838C917.502 220.154 916.706 219.183 916.236 218.046C915.766 216.909 915.644 215.659 915.885 214.453C916.126 213.247 916.719 212.139 917.59 211.271C918.461 210.402 919.569 209.811 920.776 209.573C921.982 209.335 923.232 209.46 924.367 209.933C925.503 210.406 926.472 211.205 927.153 212.229C927.834 213.253 928.196 214.457 928.193 215.687C928.189 217.332 927.532 218.909 926.367 220.072C925.202 221.234 923.624 221.887 921.979 221.887ZM921.979 194.538C920.75 194.538 919.548 194.174 918.526 193.491C917.504 192.808 916.708 191.837 916.238 190.701C915.767 189.565 915.644 188.316 915.884 187.11C916.124 185.904 916.716 184.797 917.585 183.928C918.454 183.058 919.561 182.466 920.766 182.226C921.972 181.987 923.221 182.11 924.357 182.58C925.492 183.051 926.463 183.847 927.146 184.869C927.828 185.892 928.193 187.093 928.193 188.323C928.193 189.971 927.538 191.552 926.373 192.718C925.207 193.883 923.627 194.538 921.979 194.538ZM935.65 208.212C934.421 208.212 933.219 207.848 932.197 207.165C931.175 206.482 930.379 205.511 929.909 204.375C929.438 203.24 929.315 201.99 929.555 200.784C929.795 199.579 930.387 198.471 931.256 197.602C932.125 196.732 933.232 196.141 934.437 195.901C935.643 195.661 936.892 195.784 938.028 196.254C939.163 196.725 940.134 197.521 940.817 198.544C941.499 199.566 941.864 200.767 941.864 201.997C941.864 203.645 941.209 205.226 940.044 206.392C938.878 207.558 937.298 208.212 935.65 208.212Z" fill="#C24704"/>
<path d="M963.279 207.015C956.689 177.214 946.771 161.309 932.059 156.964C928.967 156.057 925.759 155.603 922.536 155.618C918.276 155.618 914.567 156.656 910.642 157.756C905.913 159.083 900.541 160.591 892.708 160.591C884.875 160.591 879.5 159.087 874.762 157.76C870.835 156.656 867.128 155.618 862.881 155.618C859.548 155.607 856.23 156.059 853.022 156.961C838.387 161.287 828.476 177.186 821.79 206.996C814.6 239.075 818.139 259.328 831.714 264.027C833.574 264.683 835.532 265.021 837.505 265.028C846.805 265.028 854.262 257.28 859.357 250.937C865.114 243.758 871.854 240.116 892.708 240.116C911.335 240.116 919.044 242.642 925.702 250.937C929.888 256.152 933.843 259.801 937.789 262.097C943.037 265.149 948.281 265.826 953.374 264.077C961.396 261.339 965.995 254.101 967.045 242.559C967.843 233.708 966.613 222.081 963.279 207.015ZM877.794 205.343H867.852V215.288C867.852 216.606 867.328 217.871 866.396 218.804C865.463 219.736 864.199 220.26 862.881 220.26C861.562 220.26 860.298 219.736 859.365 218.804C858.433 217.871 857.909 216.606 857.909 215.288V205.343H847.967C846.648 205.343 845.384 204.819 844.451 203.886C843.519 202.954 842.995 201.689 842.995 200.37C842.995 199.052 843.519 197.787 844.451 196.854C845.384 195.922 846.648 195.398 847.967 195.398H857.909V185.453C857.909 184.134 858.433 182.869 859.365 181.937C860.298 181.004 861.562 180.481 862.881 180.481C864.199 180.481 865.463 181.004 866.396 181.937C867.328 182.869 867.852 184.134 867.852 185.453V195.398H877.794C879.113 195.398 880.377 195.922 881.31 196.854C882.242 197.787 882.766 199.052 882.766 200.37C882.766 201.689 882.242 202.954 881.31 203.886C880.377 204.819 879.113 205.343 877.794 205.343ZM903.894 206.586C902.665 206.586 901.463 206.221 900.441 205.538C899.42 204.855 898.623 203.885 898.153 202.749C897.682 201.613 897.559 200.363 897.799 199.158C898.039 197.952 898.631 196.845 899.5 195.975C900.369 195.106 901.476 194.514 902.681 194.274C903.887 194.034 905.136 194.157 906.272 194.628C907.407 195.098 908.378 195.895 909.061 196.917C909.743 197.939 910.108 199.141 910.108 200.37C910.108 202.019 909.453 203.6 908.288 204.765C907.122 205.931 905.542 206.586 903.894 206.586ZM917.565 220.26C916.335 220.26 915.133 219.895 914.111 219.212C913.089 218.528 912.292 217.556 911.822 216.42C911.352 215.283 911.23 214.032 911.471 212.826C911.712 211.62 912.306 210.513 913.176 209.644C914.047 208.775 915.156 208.185 916.362 207.947C917.569 207.709 918.819 207.834 919.954 208.307C921.089 208.779 922.058 209.579 922.739 210.603C923.42 211.627 923.782 212.83 923.779 214.06C923.775 215.706 923.118 217.283 921.953 218.445C920.789 219.607 919.21 220.26 917.565 220.26ZM917.565 192.912C916.336 192.912 915.134 192.547 914.113 191.864C913.091 191.181 912.294 190.21 911.824 189.075C911.353 187.939 911.23 186.689 911.47 185.484C911.71 184.278 912.302 183.17 913.171 182.301C914.04 181.432 915.147 180.84 916.353 180.6C917.558 180.36 918.807 180.483 919.943 180.954C921.078 181.424 922.049 182.221 922.732 183.243C923.415 184.265 923.779 185.467 923.779 186.696C923.779 188.345 923.124 189.926 921.959 191.091C920.794 192.257 919.213 192.912 917.565 192.912ZM931.236 206.586C930.007 206.586 928.806 206.221 927.784 205.538C926.762 204.855 925.965 203.885 925.495 202.749C925.025 201.613 924.902 200.363 925.141 199.158C925.381 197.952 925.973 196.845 926.842 195.975C927.711 195.106 928.818 194.514 930.024 194.274C931.229 194.034 932.479 194.157 933.614 194.628C934.75 195.098 935.72 195.895 936.403 196.917C937.086 197.939 937.45 199.141 937.45 200.37C937.45 202.019 936.795 203.6 935.63 204.765C934.465 205.931 932.884 206.586 931.236 206.586Z" fill="url(#paint7_linear_11_587)"/>
</g>
<g opacity="0.2">
<path d="M121.082 270.703C117.987 271.241 114.803 274.572 113.598 276.169C108.451 276.954 97.8625 278.341 96.6861 277.605C95.5098 276.87 88.3538 191.034 84.9229 148.208L90.5381 141.174C93.3569 142.779 105.839 145.823 111.728 147.144L122.152 153.995C123.522 157.362 127.78 160.912 129.737 162.266L137.564 174.082C137.833 178.926 140.927 183.276 142.441 184.846L145.72 198.553C144.711 206.895 146.141 209.372 146.982 209.569L145.72 224.873C144.173 226.757 143.898 232.442 143.954 235.048L137.395 250.353C134.704 251.833 133.359 256.352 133.023 258.426L121.082 270.703Z" fill="#C24704"/>
<path fill-rule="evenodd" clip-rule="evenodd" d="M91.7073 141.943C91.2064 142.001 90.9064 142.082 90.8704 142.189C90.586 143.037 94.9486 147.468 98.4577 148.128C100.858 148.579 107.637 148.098 112.081 147.674C115.907 149.688 119.52 152.185 122.866 155.102C120.121 155.091 117.767 155.185 116.829 155.481C114.107 156.341 111.384 157.889 114.107 159.954C116.373 161.672 119.991 163.51 130.125 162.589C133.147 166.26 135.837 170.332 138.136 174.733C134.032 175.478 129.747 176.808 129.463 178.876C129.048 181.904 129.983 184.152 130.502 184.897H142.531C144.124 189.45 145.334 194.248 146.111 199.23C142.654 199.64 136.945 200.524 136.166 201.962C134.756 204.565 136.267 209.971 137.475 209.971H147.092C147.115 210.783 147.126 211.598 147.126 212.416C147.126 216.817 146.794 221.125 146.157 225.303C143.008 225.364 138.961 225.627 137.475 226.378C135.034 227.612 133.016 231.623 133.947 234.94L143.955 235.443C142.383 240.962 140.262 246.17 137.672 250.972H128.712C125.393 250.972 123.401 255.874 123.78 256.251C123.993 256.462 128.648 257.517 133.016 258.465C129.561 263.321 125.569 267.6 121.153 271.168C117.2 270.651 112.676 270.157 110.977 270.579C107.942 271.334 102.631 273.973 104.528 274.916C105.383 275.341 109.411 275.826 113.76 276.235C106.695 280.283 98.8498 282.659 90.5724 282.94V282.969H88.9429C88.9309 282.969 88.919 282.969 88.9071 282.969C88.8951 282.969 88.8832 282.969 88.8712 282.969H65.1882V276.867C44.857 265.862 30.688 241.144 30.688 212.416C30.688 183.687 44.857 158.969 65.1882 147.964V141.863H88.9071H90.5724V141.891C90.9516 141.904 91.3299 141.921 91.7073 141.943Z" fill="#FEF302"/>
<path fill-rule="evenodd" clip-rule="evenodd" d="M91.7073 141.082C91.2064 141.141 90.9064 141.222 90.8704 141.33C90.586 142.183 94.9486 146.641 98.4577 147.305C100.858 147.759 107.637 147.275 112.081 146.848C115.907 148.874 119.52 151.387 122.866 154.322C120.121 154.31 117.767 154.405 116.829 154.703C114.107 155.569 111.384 157.126 114.107 159.203C116.373 160.932 119.991 162.781 130.125 161.854C133.147 165.548 135.837 169.644 138.136 174.073C134.032 174.822 129.747 176.16 129.463 178.241C129.048 181.287 129.983 183.549 130.502 184.299H142.531C144.124 188.879 145.334 193.706 146.111 198.72C142.654 199.131 136.945 200.021 136.166 201.468C134.756 204.087 136.267 209.526 137.475 209.526H147.092C147.115 210.342 147.126 211.162 147.126 211.985C147.126 216.414 146.794 220.748 146.157 224.952C143.008 225.012 138.961 225.277 137.475 226.033C135.034 227.274 133.016 231.31 133.947 234.647L143.955 235.153C142.383 240.705 140.262 245.946 137.672 250.777H128.712C125.393 250.777 123.401 255.709 123.78 256.088C123.993 256.301 128.648 257.362 133.016 258.316C129.561 263.202 125.569 267.507 121.153 271.096C117.2 270.576 112.676 270.079 110.977 270.504C107.942 271.263 102.631 273.918 104.528 274.867C105.383 275.294 109.411 275.782 113.76 276.195C106.695 280.267 98.8498 282.657 90.5724 282.94V282.969H88.9429C88.9309 282.969 88.919 282.969 88.9071 282.969C88.8951 282.969 88.8832 282.969 88.8712 282.969H65.1882V276.83C44.857 265.758 30.688 240.889 30.688 211.985C30.688 183.081 44.857 158.212 65.1882 147.14V141.002H88.9071H90.5724V141.03C90.9516 141.043 91.3299 141.061 91.7073 141.082Z" fill="url(#paint8_linear_11_587)"/>
<path d="M124.591 212.008C124.591 246.741 98.6436 274.897 66.6359 274.897C34.6281 274.897 8.68066 246.741 8.68066 212.008C8.68066 177.275 34.6281 149.118 66.6359 149.118C98.6436 149.118 124.591 177.275 124.591 212.008Z" fill="url(#paint9_radial_11_587)"/>
<path fill-rule="evenodd" clip-rule="evenodd" d="M66.5852 282.969C103.359 282.969 133.17 251.189 133.17 211.985C133.17 172.782 103.359 141.002 66.5852 141.002C29.8112 141.002 0 172.782 0 211.985C0 251.189 29.8112 282.969 66.5852 282.969ZM63.8421 271.364C93.714 271.364 117.93 244.769 117.93 211.963C117.93 179.156 93.714 152.561 63.8421 152.561C33.9701 152.561 9.75411 179.156 9.75411 211.963C9.75411 244.769 33.9701 271.364 63.8421 271.364Z" fill="url(#paint10_linear_11_587)"/>
<g filter="url(#filter2_f_11_587)">
<path d="M38.2061 182.254L38.0956 184.192L39.2657 185.344L37.6296 185.487L36.4807 187.052L36.5912 185.114L35.421 183.961L37.0572 183.818L38.2061 182.254Z" fill="white" fill-opacity="0.8"/>
<path d="M48.288 264.775L48.3015 267.612L50.2178 269.258L47.705 269.522L46.0794 271.847L46.066 269.01L44.1496 267.363L46.6625 267.1L48.288 264.775Z" fill="white" fill-opacity="0.7"/>
<path d="M117.676 162.688L118.677 165.392L121.381 166.393L118.677 167.393L117.676 170.097L116.676 167.393L113.972 166.393L116.676 165.392L117.676 162.688Z" fill="white"/>
</g>
<path d="M100.872 210.362C97.6733 195.9 92.8601 188.181 85.7203 186.072C84.2194 185.632 82.6626 185.412 81.0986 185.419C79.0312 185.419 77.2308 185.923 75.3263 186.457C73.0313 187.101 70.4242 187.832 66.6228 187.832C62.8214 187.832 60.2127 187.102 57.9132 186.458C56.0072 185.923 54.2083 185.419 52.147 185.419C50.5296 185.414 48.9194 185.633 47.3624 186.071C40.2602 188.17 35.4501 195.886 32.2051 210.353C28.7158 225.921 30.4333 235.751 37.0213 238.031C37.9243 238.349 38.8745 238.514 39.832 238.517C44.3451 238.517 47.9641 234.757 50.437 231.678C53.2312 228.194 56.5018 226.427 66.6228 226.427C75.6626 226.427 79.4037 227.653 82.6351 231.678C84.6662 234.209 86.5858 235.98 88.5008 237.094C91.0476 238.576 93.593 238.904 96.0644 238.055C99.9578 236.726 102.189 233.214 102.699 227.612C103.087 223.317 102.49 217.674 100.872 210.362ZM59.3849 209.551H54.5596V214.377C54.5596 215.017 54.3054 215.631 53.853 216.084C53.4005 216.536 52.7868 216.79 52.147 216.79C51.5071 216.79 50.8934 216.536 50.441 216.084C49.9885 215.631 49.7343 215.017 49.7343 214.377V209.551H44.9091C44.2692 209.551 43.6555 209.297 43.2031 208.844C42.7506 208.392 42.4964 207.778 42.4964 207.138C42.4964 206.498 42.7506 205.884 43.2031 205.431C43.6555 204.979 44.2692 204.725 44.9091 204.725H49.7343V199.898C49.7343 199.258 49.9885 198.644 50.441 198.192C50.8934 197.739 51.5071 197.485 52.147 197.485C52.7868 197.485 53.4005 197.739 53.853 198.192C54.3054 198.644 54.5596 199.258 54.5596 199.898V204.725H59.3849C60.0247 204.725 60.6384 204.979 61.0909 205.431C61.5433 205.884 61.7975 206.498 61.7975 207.138C61.7975 207.778 61.5433 208.392 61.0909 208.844C60.6384 209.297 60.0247 209.551 59.3849 209.551ZM72.0512 210.154C71.4547 210.154 70.8716 209.977 70.3757 209.646C69.8798 209.314 69.4932 208.843 69.265 208.292C69.0367 207.741 68.977 207.134 69.0933 206.549C69.2097 205.964 69.4969 205.427 69.9187 205.005C70.3405 204.583 70.8778 204.296 71.4628 204.179C72.0478 204.063 72.6542 204.123 73.2053 204.351C73.7563 204.579 74.2273 204.966 74.5587 205.462C74.8901 205.958 75.067 206.541 75.067 207.138C75.067 207.938 74.7492 208.705 74.1837 209.271C73.6181 209.836 72.851 210.154 72.0512 210.154ZM78.6859 216.79C78.0891 216.79 77.5058 216.613 77.0097 216.282C76.5136 215.95 76.127 215.478 75.899 214.927C75.6709 214.375 75.6117 213.768 75.7286 213.183C75.8456 212.597 76.1336 212.06 76.5561 211.638C76.9786 211.217 77.5167 210.93 78.1022 210.815C78.6877 210.699 79.2943 210.76 79.8453 210.989C80.3962 211.219 80.8667 211.607 81.1971 212.104C81.5276 212.601 81.7032 213.185 81.7017 213.782C81.6997 214.58 81.3811 215.346 80.8158 215.91C80.2504 216.474 79.4845 216.79 78.6859 216.79ZM78.6859 203.518C78.0895 203.518 77.5064 203.341 77.0104 203.01C76.5145 202.678 76.128 202.207 75.8997 201.656C75.6714 201.105 75.6117 200.498 75.7281 199.913C75.8445 199.328 76.1317 198.79 76.5534 198.369C76.9752 197.947 77.5126 197.659 78.0976 197.543C78.6826 197.427 79.289 197.486 79.84 197.715C80.3911 197.943 80.8621 198.33 81.1935 198.826C81.5248 199.322 81.7017 199.905 81.7017 200.502C81.7017 201.302 81.384 202.069 80.8184 202.634C80.2528 203.2 79.4858 203.518 78.6859 203.518ZM85.3207 210.154C84.7242 210.154 84.1411 209.977 83.6452 209.646C83.1492 209.314 82.7627 208.843 82.5344 208.292C82.3062 207.741 82.2465 207.134 82.3628 206.549C82.4792 205.964 82.7664 205.427 83.1882 205.005C83.6099 204.583 84.1473 204.296 84.7323 204.179C85.3173 204.063 85.9237 204.123 86.4748 204.351C87.0258 204.579 87.4968 204.966 87.8282 205.462C88.1596 205.958 88.3365 206.541 88.3365 207.138C88.3365 207.938 88.0187 208.705 87.4532 209.271C86.8876 209.836 86.1205 210.154 85.3207 210.154Z" fill="#C24704"/>
<path d="M98.729 209.573C95.5308 195.11 90.7176 187.391 83.5777 185.283C82.0768 184.842 80.52 184.622 78.956 184.63C76.8887 184.63 75.0882 185.133 73.1838 185.667C70.8887 186.311 68.2816 187.043 64.4802 187.043C60.6788 187.043 58.0701 186.313 55.7706 185.669C53.8646 185.133 52.0657 184.63 50.0044 184.63C48.3871 184.624 46.7768 184.843 45.2198 185.281C38.1177 187.381 33.3075 195.097 30.0625 209.564C26.5732 225.132 28.2907 234.961 34.8787 237.242C35.7818 237.56 36.7319 237.724 37.6894 237.727C42.2025 237.727 45.8215 233.967 48.2944 230.889C51.0886 227.405 54.3592 225.637 64.4802 225.637C73.52 225.637 77.2611 226.863 80.4925 230.889C82.5237 233.42 84.4432 235.191 86.3582 236.305C88.9051 237.786 91.4504 238.115 93.9218 237.266C97.8152 235.937 100.047 232.424 100.557 226.823C100.944 222.527 100.347 216.885 98.729 209.573ZM57.2423 208.762H52.417V213.588C52.417 214.228 52.1628 214.842 51.7104 215.294C51.2579 215.747 50.6443 216.001 50.0044 216.001C49.3645 216.001 48.7509 215.747 48.2984 215.294C47.846 214.842 47.5918 214.228 47.5918 213.588V208.762H42.7665C42.1266 208.762 41.513 208.507 41.0605 208.055C40.6081 207.602 40.3539 206.988 40.3539 206.348C40.3539 205.708 40.6081 205.094 41.0605 204.642C41.513 204.189 42.1266 203.935 42.7665 203.935H47.5918V199.109C47.5918 198.469 47.846 197.855 48.2984 197.402C48.7509 196.95 49.3645 196.696 50.0044 196.696C50.6443 196.696 51.2579 196.95 51.7104 197.402C52.1628 197.855 52.417 198.469 52.417 199.109V203.935H57.2423C57.8822 203.935 58.4958 204.189 58.9483 204.642C59.4007 205.094 59.6549 205.708 59.6549 206.348C59.6549 206.988 59.4007 207.602 58.9483 208.055C58.4958 208.507 57.8822 208.762 57.2423 208.762ZM69.9086 209.365C69.3121 209.365 68.7291 209.188 68.2331 208.856C67.7372 208.525 67.3506 208.054 67.1224 207.503C66.8941 206.951 66.8344 206.345 66.9508 205.76C67.0671 205.175 67.3544 204.637 67.7761 204.215C68.1979 203.793 68.7353 203.506 69.3203 203.39C69.9053 203.273 70.5116 203.333 71.0627 203.561C71.6138 203.79 72.0848 204.176 72.4161 204.672C72.7475 205.168 72.9244 205.752 72.9244 206.348C72.9244 207.148 72.6067 207.916 72.0411 208.481C71.4755 209.047 70.7084 209.365 69.9086 209.365ZM76.5433 216.001C75.9466 216.001 75.3632 215.824 74.8671 215.492C74.371 215.16 73.9844 214.689 73.7564 214.137C73.5284 213.586 73.4691 212.979 73.5861 212.393C73.703 211.808 73.991 211.271 74.4135 210.849C74.8361 210.427 75.3741 210.141 75.9596 210.025C76.5451 209.91 77.1517 209.97 77.7027 210.2C78.2536 210.429 78.7241 210.817 79.0546 211.314C79.385 211.811 79.5606 212.395 79.5591 212.992C79.5571 213.791 79.2385 214.556 78.6732 215.12C78.1078 215.684 77.3419 216.001 76.5433 216.001ZM76.5433 202.729C75.9469 202.729 75.3638 202.552 74.8679 202.22C74.3719 201.889 73.9854 201.418 73.7571 200.866C73.5289 200.315 73.4691 199.709 73.5855 199.124C73.7019 198.538 73.9891 198.001 74.4109 197.579C74.8326 197.157 75.37 196.87 75.955 196.753C76.54 196.637 77.1464 196.697 77.6974 196.925C78.2485 197.153 78.7195 197.54 79.0509 198.036C79.3823 198.532 79.5591 199.115 79.5591 199.712C79.5591 200.512 79.2414 201.279 78.6758 201.845C78.1103 202.411 77.3432 202.729 76.5433 202.729ZM83.1781 209.365C82.5816 209.365 81.9985 209.188 81.5026 208.856C81.0067 208.525 80.6201 208.054 80.3919 207.503C80.1636 206.951 80.1039 206.345 80.2202 205.76C80.3366 205.175 80.6238 204.637 81.0456 204.215C81.4674 203.793 82.0047 203.506 82.5897 203.39C83.1747 203.273 83.7811 203.333 84.3322 203.561C84.8832 203.79 85.3542 204.176 85.6856 204.672C86.017 205.168 86.1939 205.752 86.1939 206.348C86.1939 207.148 85.8761 207.916 85.3106 208.481C84.745 209.047 83.9779 209.365 83.1781 209.365Z" fill="url(#paint11_linear_11_587)"/>
</g>
<g opacity="0.5">
<path d="M396.619 332.976C390.243 334.085 383.682 340.947 381.198 344.239C370.592 345.857 348.775 348.713 346.351 347.198C343.928 345.683 329.182 168.815 322.113 80.5706L333.683 66.0759C339.491 69.3834 365.212 75.6556 377.346 78.3782L398.824 92.4955C401.648 99.4332 410.421 106.747 414.454 109.537L430.581 133.885C431.135 143.865 437.512 152.829 440.63 156.064L447.388 184.307C445.309 201.496 448.254 206.602 449.987 207.006L447.388 238.542C444.2 242.423 443.634 254.137 443.749 259.508L430.234 291.044C424.689 294.094 421.917 303.404 421.224 307.678L396.619 332.976Z" fill="#C24704"/>
<path fill-rule="evenodd" clip-rule="evenodd" d="M336.093 67.6613C335.06 67.7814 334.442 67.9471 334.368 68.168C333.782 69.9162 342.772 79.0454 350.002 80.405C354.949 81.3352 368.917 80.3432 378.074 79.4694C385.957 83.6192 393.401 88.7652 400.297 94.7763C394.64 94.7522 389.79 94.9465 387.857 95.5572C382.247 97.3295 376.637 100.52 382.247 104.773C386.917 108.314 394.372 112.1 415.253 110.203C421.48 117.767 427.022 126.157 431.76 135.227C423.305 136.761 414.475 139.501 413.89 143.764C413.034 150.002 414.96 154.634 416.03 156.17H440.817C444.1 165.551 446.592 175.437 448.194 185.704C441.07 186.548 429.307 188.37 427.701 191.333C424.796 196.696 427.909 207.835 430.399 207.835H450.214C450.261 209.508 450.285 211.187 450.285 212.873C450.285 221.942 449.6 230.818 448.288 239.428C441.8 239.552 433.461 240.094 430.399 241.642C425.368 244.185 421.21 252.45 423.129 259.285L443.75 260.322C440.512 271.692 436.142 282.424 430.804 292.319H412.342C405.502 292.319 401.398 302.42 402.18 303.197C402.618 303.632 412.211 305.806 421.211 307.759C414.092 317.765 405.867 326.583 396.766 333.933C388.622 332.869 379.3 331.851 375.798 332.721C369.545 334.275 358.601 339.714 362.509 341.656C364.271 342.532 372.572 343.531 381.533 344.375C366.975 352.716 350.81 357.611 333.754 358.191V358.249H330.396C330.372 358.249 330.347 358.249 330.323 358.249C330.298 358.249 330.273 358.249 330.249 358.249H281.449V345.677C239.556 323.001 210.36 272.069 210.36 212.873C210.36 153.677 239.556 102.744 281.449 80.0684V67.4961H330.323H333.754V67.5544C334.536 67.581 335.315 67.6167 336.093 67.6613Z" fill="#FEF302"/>
<path fill-rule="evenodd" clip-rule="evenodd" d="M336.093 65.8872C335.06 66.008 334.442 66.1747 334.368 66.397C333.782 68.1558 342.772 77.3407 350.002 78.7087C354.949 79.6445 368.917 78.6464 378.074 77.7673C385.957 81.9425 393.401 87.1199 400.297 93.1677C394.64 93.1435 389.79 93.3389 387.857 93.9533C382.247 95.7364 376.637 98.9461 382.247 103.226C386.917 106.788 394.372 110.597 415.253 108.688C421.48 116.298 427.022 124.74 431.76 133.865C423.305 135.409 414.475 138.166 413.89 142.454C413.034 148.731 414.96 153.39 416.03 154.936H440.817C444.1 164.375 446.592 174.32 448.194 184.65C441.07 185.499 429.307 187.332 427.701 190.314C424.796 195.71 427.909 206.917 430.399 206.917H450.214C450.261 208.599 450.285 210.289 450.285 211.985C450.285 221.11 449.6 230.04 448.288 238.702C441.8 238.828 433.461 239.373 430.399 240.93C425.368 243.489 421.21 251.804 423.129 258.681L443.75 259.724C440.512 271.164 436.142 281.961 430.804 291.917H412.342C405.502 291.917 401.398 302.079 402.18 302.86C402.618 303.298 412.211 305.485 421.211 307.451C414.092 317.518 405.867 326.389 396.766 333.784C388.622 332.714 379.3 331.69 375.798 332.565C369.545 334.128 358.601 339.6 362.509 341.555C364.271 342.436 372.572 343.441 381.533 344.29C366.975 352.682 350.81 357.606 333.754 358.191V358.249H330.396C330.372 358.249 330.347 358.249 330.323 358.249C330.298 358.249 330.273 358.249 330.249 358.249H281.449V345.6C239.556 322.786 210.36 271.543 210.36 211.985C210.36 152.428 239.556 101.184 281.449 78.37V65.7209H330.323H333.754V65.7796C334.536 65.8064 335.315 65.8423 336.093 65.8872Z" fill="url(#paint12_linear_11_587)"/>
<path d="M403.85 212.032C403.85 283.6 350.384 341.618 284.431 341.618C218.478 341.618 165.013 283.6 165.013 212.032C165.013 140.463 218.478 82.4456 284.431 82.4456C350.384 82.4456 403.85 140.463 403.85 212.032Z" fill="url(#paint13_radial_11_587)"/>
<path fill-rule="evenodd" clip-rule="evenodd" d="M284.327 358.249C360.101 358.249 421.528 292.765 421.528 211.985C421.528 131.206 360.101 65.7209 284.327 65.7209C208.553 65.7209 147.126 131.206 147.126 211.985C147.126 292.765 208.553 358.249 284.327 358.249ZM278.675 334.337C340.227 334.337 390.125 279.537 390.125 211.938C390.125 144.339 340.227 89.5394 278.675 89.5394C217.123 89.5394 167.225 144.339 167.225 211.938C167.225 279.537 217.123 334.337 278.675 334.337Z" fill="url(#paint14_linear_11_587)"/>
<g filter="url(#filter3_f_11_587)">
<path d="M225.849 150.724L225.622 154.717L228.033 157.091L224.661 157.387L222.294 160.61L222.522 156.617L220.111 154.243L223.482 153.947L225.849 150.724Z" fill="white" fill-opacity="0.8"/>
<path d="M246.625 320.76L246.653 326.606L250.601 329.999L245.424 330.542L242.074 335.333L242.046 329.487L238.098 326.094L243.276 325.551L246.625 320.76Z" fill="white" fill-opacity="0.7"/>
<path d="M389.602 110.408L391.664 115.979L397.235 118.041L391.664 120.103L389.602 125.674L387.541 120.103L381.969 118.041L387.541 115.979L389.602 110.408Z" fill="white"/>
</g>
<path d="M354.975 208.641C348.385 178.841 338.467 162.935 323.755 158.59C320.663 157.683 317.455 157.23 314.232 157.245C309.972 157.245 306.262 158.283 302.338 159.383C297.609 160.71 292.237 162.217 284.404 162.217C276.571 162.217 271.196 160.713 266.458 159.386C262.53 158.283 258.824 157.245 254.576 157.245C251.244 157.233 247.926 157.685 244.718 158.587C230.083 162.913 220.172 178.813 213.485 208.623C206.296 240.701 209.835 260.955 223.409 265.654C225.27 266.31 227.228 266.648 229.201 266.654C238.5 266.654 245.957 258.907 251.053 252.564C256.81 245.385 263.55 241.742 284.404 241.742C303.031 241.742 310.74 244.269 317.398 252.564C321.583 257.778 325.539 261.427 329.485 263.724C334.732 266.775 339.977 267.453 345.07 265.703C353.092 262.965 357.691 255.727 358.741 244.185C359.539 235.334 358.309 223.708 354.975 208.641ZM269.49 206.969H259.548V216.914C259.548 218.233 259.024 219.498 258.092 220.43C257.159 221.363 255.895 221.887 254.576 221.887C253.258 221.887 251.993 221.363 251.061 220.43C250.129 219.498 249.605 218.233 249.605 216.914V206.969H239.662C238.344 206.969 237.079 206.445 236.147 205.513C235.215 204.58 234.691 203.316 234.691 201.997C234.691 200.678 235.215 199.413 236.147 198.481C237.079 197.548 238.344 197.024 239.662 197.024H249.605V187.079C249.605 185.761 250.129 184.496 251.061 183.563C251.993 182.631 253.258 182.107 254.576 182.107C255.895 182.107 257.159 182.631 258.092 183.563C259.024 184.496 259.548 185.761 259.548 187.079V197.024H269.49C270.809 197.024 272.073 197.548 273.005 198.481C273.938 199.413 274.462 200.678 274.462 201.997C274.462 203.316 273.938 204.58 273.005 205.513C272.073 206.445 270.809 206.969 269.49 206.969ZM295.59 208.212C294.361 208.212 293.159 207.848 292.137 207.165C291.115 206.482 290.319 205.511 289.848 204.375C289.378 203.24 289.255 201.99 289.495 200.784C289.735 199.579 290.326 198.471 291.196 197.602C292.065 196.732 293.172 196.141 294.377 195.901C295.583 195.661 296.832 195.784 297.968 196.254C299.103 196.725 300.074 197.521 300.756 198.544C301.439 199.566 301.804 200.767 301.804 201.997C301.804 203.645 301.149 205.226 299.984 206.392C298.818 207.558 297.238 208.212 295.59 208.212ZM309.261 221.887C308.031 221.887 306.829 221.522 305.807 220.838C304.784 220.154 303.988 219.183 303.518 218.046C303.048 216.909 302.926 215.659 303.167 214.453C303.408 213.247 304.002 212.139 304.872 211.271C305.743 210.402 306.852 209.811 308.058 209.573C309.264 209.335 310.514 209.46 311.65 209.933C312.785 210.406 313.754 211.205 314.435 212.229C315.116 213.253 315.478 214.457 315.475 215.687C315.471 217.332 314.814 218.909 313.649 220.072C312.484 221.234 310.906 221.887 309.261 221.887ZM309.261 194.538C308.032 194.538 306.83 194.174 305.808 193.491C304.786 192.808 303.99 191.837 303.52 190.701C303.049 189.565 302.926 188.316 303.166 187.11C303.406 185.904 303.998 184.797 304.867 183.928C305.736 183.058 306.843 182.466 308.048 182.226C309.254 181.987 310.503 182.11 311.639 182.58C312.774 183.051 313.745 183.847 314.428 184.869C315.11 185.892 315.475 187.093 315.475 188.323C315.475 189.971 314.82 191.552 313.655 192.718C312.489 193.883 310.909 194.538 309.261 194.538ZM322.932 208.212C321.703 208.212 320.501 207.848 319.479 207.165C318.458 206.482 317.661 205.511 317.191 204.375C316.72 203.24 316.597 201.99 316.837 200.784C317.077 199.579 317.669 198.471 318.538 197.602C319.407 196.732 320.514 196.141 321.719 195.901C322.925 195.661 324.174 195.784 325.31 196.254C326.445 196.725 327.416 197.521 328.099 198.544C328.781 199.566 329.146 200.767 329.146 201.997C329.146 203.645 328.491 205.226 327.326 206.392C326.16 207.558 324.58 208.212 322.932 208.212Z" fill="#C24704"/>
<path d="M350.561 207.015C343.971 177.214 334.054 161.309 319.342 156.964C316.249 156.057 313.041 155.603 309.818 155.618C305.559 155.618 301.849 156.656 297.925 157.756C293.196 159.083 287.824 160.591 279.991 160.591C272.158 160.591 266.782 159.087 262.044 157.76C258.117 156.656 254.41 155.618 250.163 155.618C246.83 155.607 243.512 156.059 240.304 156.961C225.67 161.287 215.758 177.186 209.072 206.996C201.882 239.075 205.421 259.328 218.996 264.027C220.856 264.683 222.814 265.021 224.787 265.028C234.087 265.028 241.544 257.28 246.639 250.937C252.397 243.758 259.136 240.116 279.991 240.116C298.617 240.116 306.326 242.642 312.985 250.937C317.17 256.152 321.125 259.801 325.071 262.097C330.319 265.149 335.564 265.826 340.656 264.077C348.679 261.339 353.277 254.101 354.327 242.559C355.126 233.708 353.895 222.081 350.561 207.015ZM265.077 205.343H255.134V215.288C255.134 216.606 254.61 217.871 253.678 218.804C252.746 219.736 251.481 220.26 250.163 220.26C248.844 220.26 247.58 219.736 246.647 218.804C245.715 217.871 245.191 216.606 245.191 215.288V205.343H235.249C233.93 205.343 232.666 204.819 231.734 203.886C230.801 202.954 230.277 201.689 230.277 200.37C230.277 199.052 230.801 197.787 231.734 196.854C232.666 195.922 233.93 195.398 235.249 195.398H245.191V185.453C245.191 184.134 245.715 182.869 246.647 181.937C247.58 181.004 248.844 180.481 250.163 180.481C251.481 180.481 252.746 181.004 253.678 181.937C254.61 182.869 255.134 184.134 255.134 185.453V195.398H265.077C266.395 195.398 267.66 195.922 268.592 196.854C269.524 197.787 270.048 199.052 270.048 200.37C270.048 201.689 269.524 202.954 268.592 203.886C267.66 204.819 266.395 205.343 265.077 205.343ZM291.176 206.586C289.947 206.586 288.746 206.221 287.724 205.538C286.702 204.855 285.905 203.885 285.435 202.749C284.965 201.613 284.842 200.363 285.081 199.158C285.321 197.952 285.913 196.845 286.782 195.975C287.651 195.106 288.758 194.514 289.964 194.274C291.169 194.034 292.419 194.157 293.554 194.628C294.69 195.098 295.66 195.895 296.343 196.917C297.026 197.939 297.39 199.141 297.39 200.37C297.39 202.019 296.735 203.6 295.57 204.765C294.405 205.931 292.824 206.586 291.176 206.586ZM304.847 220.26C303.617 220.26 302.415 219.895 301.393 219.212C300.371 218.528 299.574 217.556 299.105 216.42C298.635 215.283 298.513 214.032 298.754 212.826C298.995 211.62 299.588 210.513 300.459 209.644C301.329 208.775 302.438 208.185 303.644 207.947C304.851 207.709 306.101 207.834 307.236 208.307C308.371 208.779 309.341 209.579 310.022 210.603C310.703 211.627 311.064 212.83 311.061 214.06C311.057 215.706 310.401 217.283 309.236 218.445C308.071 219.607 306.493 220.26 304.847 220.26ZM304.847 192.912C303.618 192.912 302.417 192.547 301.395 191.864C300.373 191.181 299.576 190.21 299.106 189.075C298.636 187.939 298.513 186.689 298.752 185.484C298.992 184.278 299.584 183.17 300.453 182.301C301.322 181.432 302.429 180.84 303.635 180.6C304.84 180.36 306.09 180.483 307.225 180.954C308.361 181.424 309.331 182.221 310.014 183.243C310.697 184.265 311.061 185.467 311.061 186.696C311.061 188.345 310.407 189.926 309.241 191.091C308.076 192.257 306.495 192.912 304.847 192.912ZM318.518 206.586C317.289 206.586 316.088 206.221 315.066 205.538C314.044 204.855 313.247 203.885 312.777 202.749C312.307 201.613 312.184 200.363 312.424 199.158C312.663 197.952 313.255 196.845 314.124 195.975C314.993 195.106 316.101 194.514 317.306 194.274C318.511 194.034 319.761 194.157 320.896 194.628C322.032 195.098 323.002 195.895 323.685 196.917C324.368 197.939 324.732 199.141 324.732 200.37C324.732 202.019 324.078 203.6 322.912 204.765C321.747 205.931 320.166 206.586 318.518 206.586Z" fill="url(#paint15_linear_11_587)"/>
</g>
<path d="M727.481 381.859C718.371 383.444 708.996 393.248 705.447 397.952C690.294 400.263 659.121 404.344 655.658 402.179C652.194 400.015 631.126 147.303 621.025 21.2172L637.557 0.506836C645.856 5.23265 682.606 14.1944 699.943 18.0845L730.632 38.2557C734.666 48.1684 747.201 58.619 752.964 62.6052L776.006 97.3933C776.798 111.654 785.909 124.462 790.365 129.083L800.021 169.438C797.05 193.998 801.258 201.293 803.734 201.871L800.021 246.93C795.465 252.475 794.656 269.212 794.822 276.887L775.511 321.945C767.588 326.303 763.627 339.606 762.637 345.713L727.481 381.859Z" fill="#C24704"/>
<path fill-rule="evenodd" clip-rule="evenodd" d="M641 2.77219C639.525 2.94373 638.642 3.18047 638.536 3.49618C637.699 5.99396 650.543 19.038 660.874 20.9807C667.942 22.3097 687.9 20.8923 700.984 19.6438C712.248 25.5731 722.884 32.9258 732.736 41.5146C724.653 41.4802 717.724 41.7577 714.962 42.6303C706.946 45.1626 698.931 49.7208 706.946 55.7982C713.619 60.8574 724.271 66.2675 754.107 63.5563C763.003 74.3637 770.922 86.3524 777.691 99.3115C765.611 101.504 752.994 105.419 752.159 111.509C750.936 120.422 753.688 127.04 755.216 129.235H790.633C795.323 142.639 798.884 156.764 801.172 171.434C790.994 172.639 774.186 175.242 771.892 179.477C767.741 187.14 772.189 203.056 775.747 203.056H804.059C804.127 205.445 804.16 207.844 804.16 210.253C804.16 223.212 803.181 235.894 801.307 248.196C792.036 248.373 780.122 249.148 775.747 251.359C768.559 254.993 762.618 266.802 765.36 276.568L794.823 278.049C790.196 294.296 783.952 309.63 776.325 323.768H749.947C740.174 323.768 734.31 338.2 735.427 339.31C736.053 339.931 749.759 343.037 762.62 345.829C752.447 360.125 740.695 372.724 727.691 383.226C716.055 381.706 702.735 380.251 697.732 381.495C688.797 383.715 673.16 391.486 678.745 394.261C681.263 395.512 693.122 396.94 705.927 398.146C685.126 410.063 662.029 417.057 637.659 417.887V417.97H632.861C632.826 417.97 632.791 417.97 632.756 417.97C632.721 417.97 632.686 417.97 632.651 417.97H562.925V400.007C503.067 367.607 461.352 294.834 461.352 210.253C461.352 125.673 503.067 52.8992 562.925 20.4996V2.53613H632.756H637.659V2.61948C638.775 2.65748 639.889 2.70842 641 2.77219Z" fill="#FEF302"/>
<path fill-rule="evenodd" clip-rule="evenodd" d="M641 0.237495C639.525 0.410089 638.642 0.648269 638.536 0.965911C637.699 3.47894 650.543 16.6026 660.874 18.5572C667.942 19.8943 687.9 18.4682 700.984 17.2121C712.248 23.1776 722.884 30.5752 732.736 39.2164C724.653 39.1819 717.724 39.461 714.962 40.339C706.946 42.8867 698.931 47.4727 706.946 53.5873C713.619 58.6773 724.271 64.1204 754.107 61.3926C763.003 72.266 770.922 84.3279 777.691 97.3661C765.611 99.5719 752.994 103.511 752.159 109.638C750.936 118.606 753.688 125.264 755.216 127.472H790.633C795.323 140.958 798.884 155.169 801.172 169.929C790.994 171.141 774.186 173.761 771.892 178.021C767.741 185.731 772.189 201.744 775.747 201.744H804.059C804.127 204.147 804.16 206.561 804.16 208.985C804.16 222.023 803.181 234.782 801.307 247.159C792.036 247.338 780.122 248.117 775.747 250.342C768.559 253.998 762.618 265.88 765.36 275.705L794.823 277.195C790.196 293.541 783.952 308.968 776.325 323.193H749.947C740.174 323.193 734.31 337.713 735.427 338.829C736.053 339.455 749.759 342.58 762.62 345.388C752.447 359.772 740.695 372.447 727.691 383.014C716.055 381.484 702.735 380.021 697.732 381.272C688.797 383.506 673.16 391.324 678.745 394.116C681.263 395.375 693.122 396.811 705.927 398.025C685.126 410.015 662.029 417.052 637.659 417.886V417.97H632.861C632.826 417.97 632.791 417.97 632.756 417.97C632.721 417.97 632.686 417.97 632.651 417.97H562.925V399.897C503.067 367.299 461.352 294.082 461.352 208.985C461.352 123.888 503.067 50.6705 562.925 18.0732V0H632.756H637.659V0.0838545C638.775 0.12209 639.889 0.173344 641 0.237495Z" fill="url(#paint16_linear_11_587)"/>
<path d="M737.812 209.052C737.812 311.311 661.42 394.207 567.185 394.207C472.95 394.207 396.557 311.311 396.557 209.052C396.557 106.794 472.95 23.8972 567.185 23.8972C661.42 23.8972 737.812 106.794 737.812 209.052Z" fill="url(#paint17_radial_11_587)"/>
<path fill-rule="evenodd" clip-rule="evenodd" d="M567.036 417.97C675.303 417.97 763.071 324.404 763.071 208.985C763.071 93.5658 675.303 0 567.036 0C458.769 0 371.001 93.5658 371.001 208.985C371.001 324.404 458.769 417.97 567.036 417.97ZM558.96 383.803C646.907 383.803 718.202 305.504 718.202 208.918C718.202 112.331 646.907 34.0323 558.96 34.0323C471.013 34.0323 399.718 112.331 399.718 208.918C399.718 305.504 471.013 383.803 558.96 383.803Z" fill="url(#paint18_linear_11_587)"/>
<g filter="url(#filter4_f_11_587)">
<path d="M483.481 121.453L483.156 127.158L486.601 130.551L481.784 130.973L478.402 135.579L478.727 129.874L475.282 126.481L480.099 126.059L483.481 121.453Z" fill="white" fill-opacity="0.8"/>
<path d="M513.167 364.405L513.207 372.757L518.849 377.605L511.451 378.381L506.665 385.226L506.625 376.874L500.983 372.026L508.381 371.25L513.167 364.405Z" fill="white" fill-opacity="0.7"/>
<path d="M717.455 63.8494L720.4 71.8101L728.361 74.7558L720.4 77.7015L717.455 85.6622L714.509 77.7015L706.548 74.7558L714.509 71.8101L717.455 63.8494Z" fill="white"/>
</g>
<path d="M667.979 204.207C658.563 161.628 644.392 138.901 623.372 132.693C618.953 131.397 614.369 130.749 609.765 130.771C603.678 130.771 598.377 132.254 592.77 133.826C586.014 135.722 578.338 137.876 567.146 137.876C555.954 137.876 548.274 135.726 541.504 133.83C535.892 132.254 530.596 130.771 524.527 130.771C519.766 130.754 515.025 131.4 510.441 132.689C489.531 138.87 475.369 161.588 465.816 204.18C455.543 250.015 460.599 278.953 479.995 285.667C482.654 286.605 485.451 287.088 488.27 287.097C501.558 287.097 512.212 276.027 519.493 266.964C527.719 256.707 537.348 251.502 567.146 251.502C593.76 251.502 604.775 255.113 614.288 266.964C620.268 274.415 625.92 279.628 631.558 282.91C639.056 287.27 646.55 288.238 653.826 285.738C665.289 281.826 671.859 271.484 673.36 254.993C674.501 242.346 672.743 225.734 667.979 204.207ZM545.837 201.818H531.631V216.028C531.631 217.912 530.882 219.719 529.55 221.051C528.218 222.384 526.411 223.132 524.527 223.132C522.644 223.132 520.837 222.384 519.505 221.051C518.173 219.719 517.424 217.912 517.424 216.028V201.818H503.218C501.334 201.818 499.528 201.07 498.195 199.737C496.863 198.405 496.115 196.598 496.115 194.713C496.115 192.829 496.863 191.022 498.195 189.69C499.528 188.357 501.334 187.609 503.218 187.609H517.424V173.399C517.424 171.515 518.173 169.708 519.505 168.375C520.837 167.043 522.644 166.294 524.527 166.294C526.411 166.294 528.218 167.043 529.55 168.375C530.882 169.708 531.631 171.515 531.631 173.399V187.609H545.837C547.721 187.609 549.527 188.357 550.859 189.69C552.191 191.022 552.94 192.829 552.94 194.713C552.94 196.598 552.191 198.405 550.859 199.737C549.527 201.07 547.721 201.818 545.837 201.818ZM583.128 203.594C581.372 203.594 579.655 203.073 578.195 202.098C576.735 201.122 575.597 199.735 574.925 198.112C574.253 196.489 574.077 194.704 574.42 192.981C574.762 191.258 575.608 189.676 576.85 188.434C578.091 187.192 579.673 186.346 581.396 186.003C583.118 185.66 584.903 185.836 586.526 186.508C588.148 187.181 589.535 188.319 590.511 189.779C591.486 191.24 592.007 192.957 592.007 194.713C592.007 197.069 591.071 199.328 589.406 200.993C587.741 202.659 585.483 203.594 583.128 203.594ZM602.662 223.132C600.905 223.132 599.187 222.611 597.726 221.634C596.266 220.657 595.128 219.269 594.456 217.645C593.785 216.021 593.611 214.234 593.955 212.511C594.299 210.787 595.147 209.205 596.391 207.964C597.635 206.723 599.219 205.879 600.943 205.538C602.667 205.198 604.453 205.377 606.075 206.053C607.697 206.728 609.082 207.87 610.055 209.334C611.028 210.797 611.545 212.516 611.54 214.274C611.535 216.625 610.596 218.878 608.932 220.539C607.268 222.2 605.013 223.132 602.662 223.132ZM602.662 184.056C600.905 184.056 599.189 183.535 597.729 182.56C596.269 181.584 595.131 180.197 594.459 178.574C593.786 176.951 593.611 175.166 593.953 173.443C594.296 171.72 595.141 170.138 596.383 168.896C597.625 167.654 599.207 166.808 600.929 166.465C602.652 166.122 604.437 166.298 606.059 166.97C607.682 167.643 609.068 168.781 610.044 170.241C611.02 171.702 611.54 173.419 611.54 175.175C611.54 177.531 610.605 179.79 608.94 181.455C607.275 183.121 605.016 184.056 602.662 184.056ZM622.195 203.594C620.439 203.594 618.722 203.073 617.262 202.098C615.802 201.122 614.664 199.735 613.992 198.112C613.32 196.489 613.144 194.704 613.487 192.981C613.829 191.258 614.675 189.676 615.917 188.434C617.158 187.192 618.741 186.346 620.463 186.003C622.185 185.66 623.97 185.836 625.593 186.508C627.215 187.181 628.602 188.319 629.578 189.779C630.553 191.24 631.074 192.957 631.074 194.713C631.074 197.069 630.139 199.328 628.473 200.993C626.808 202.659 624.55 203.594 622.195 203.594Z" fill="#C24704"/>
<path d="M661.672 201.884C652.256 159.304 638.086 136.578 617.065 130.37C612.646 129.074 608.063 128.426 603.458 128.447C597.371 128.447 592.071 129.93 586.464 131.502C579.707 133.398 572.031 135.552 560.839 135.552C549.647 135.552 541.967 133.403 535.197 131.507C529.586 129.93 524.289 128.447 518.221 128.447C513.459 128.431 508.718 129.076 504.134 130.366C483.225 136.547 469.063 159.264 459.509 201.857C449.236 247.691 454.293 276.63 473.689 283.344C476.347 284.281 479.145 284.765 481.964 284.774C495.251 284.774 505.906 273.704 513.186 264.641C521.413 254.383 531.042 249.179 560.839 249.179C587.454 249.179 598.468 252.789 607.982 264.641C613.962 272.092 619.613 277.305 625.251 280.586C632.749 284.947 640.243 285.915 647.519 283.415C658.982 279.503 665.552 269.161 667.053 252.669C668.194 240.023 666.436 223.411 661.672 201.884ZM539.53 199.495H525.324V213.704C525.324 215.588 524.575 217.396 523.243 218.728C521.911 220.06 520.105 220.809 518.221 220.809C516.337 220.809 514.53 220.06 513.198 218.728C511.866 217.396 511.118 215.588 511.118 213.704V199.495H496.911C495.028 199.495 493.221 198.746 491.889 197.414C490.557 196.081 489.808 194.274 489.808 192.39C489.808 190.506 490.557 188.698 491.889 187.366C493.221 186.034 495.028 185.285 496.911 185.285H511.118V171.076C511.118 169.191 511.866 167.384 513.198 166.052C514.53 164.719 516.337 163.971 518.221 163.971C520.105 163.971 521.911 164.719 523.243 166.052C524.575 167.384 525.324 169.191 525.324 171.076V185.285H539.53C541.414 185.285 543.221 186.034 544.553 187.366C545.885 188.698 546.633 190.506 546.633 192.39C546.633 194.274 545.885 196.081 544.553 197.414C543.221 198.746 541.414 199.495 539.53 199.495ZM576.821 201.271C575.065 201.271 573.349 200.75 571.888 199.774C570.428 198.798 569.29 197.411 568.618 195.788C567.946 194.166 567.77 192.38 568.113 190.657C568.456 188.935 569.301 187.352 570.543 186.11C571.785 184.868 573.367 184.022 575.089 183.68C576.811 183.337 578.597 183.513 580.219 184.185C581.841 184.857 583.228 185.995 584.204 187.456C585.179 188.916 585.7 190.633 585.7 192.39C585.7 194.745 584.765 197.004 583.1 198.67C581.435 200.335 579.176 201.271 576.821 201.271ZM596.355 220.809C594.598 220.809 592.88 220.287 591.42 219.311C589.959 218.334 588.821 216.945 588.15 215.321C587.478 213.697 587.304 211.91 587.648 210.187C587.993 208.464 588.84 206.881 590.084 205.64C591.328 204.399 592.912 203.555 594.636 203.215C596.36 202.875 598.146 203.054 599.768 203.729C601.39 204.405 602.775 205.547 603.748 207.01C604.721 208.473 605.238 210.193 605.234 211.95C605.228 214.302 604.29 216.555 602.625 218.216C600.961 219.876 598.706 220.809 596.355 220.809ZM596.355 181.733C594.599 181.733 592.882 181.212 591.422 180.236C589.962 179.26 588.824 177.873 588.152 176.25C587.48 174.628 587.304 172.842 587.647 171.119C587.989 169.397 588.835 167.814 590.076 166.572C591.318 165.33 592.9 164.484 594.623 164.142C596.345 163.799 598.13 163.975 599.753 164.647C601.375 165.319 602.762 166.457 603.737 167.918C604.713 169.378 605.234 171.095 605.234 172.852C605.234 175.207 604.298 177.466 602.633 179.132C600.968 180.797 598.71 181.733 596.355 181.733ZM615.888 201.271C614.132 201.271 612.416 200.75 610.955 199.774C609.495 198.798 608.357 197.411 607.685 195.788C607.013 194.166 606.837 192.38 607.18 190.657C607.523 188.935 608.368 187.352 609.61 186.11C610.852 184.868 612.434 184.022 614.156 183.68C615.878 183.337 617.664 183.513 619.286 184.185C620.909 184.857 622.295 185.995 623.271 187.456C624.246 188.916 624.767 190.633 624.767 192.39C624.767 194.745 623.832 197.004 622.167 198.67C620.502 200.335 618.243 201.271 615.888 201.271Z" fill="url(#paint19_linear_11_587)"/>
<defs>
<filter id="filter0_f_11_587" x="1097.42" y="161.688" width="87.9595" height="111.158" filterUnits="userSpaceOnUse" color-interpolation-filters="sRGB">
<feFlood flood-opacity="0" result="BackgroundImageFix"/>
<feBlend mode="normal" in="SourceGraphic" in2="BackgroundImageFix" result="shape"/>
<feGaussianBlur stdDeviation="0.5" result="effect1_foregroundBlur_11_587"/>
</filter>
<filter id="filter1_f_11_587" x="831.829" y="109.408" width="179.125" height="226.925" filterUnits="userSpaceOnUse" color-interpolation-filters="sRGB">
<feFlood flood-opacity="0" result="BackgroundImageFix"/>
<feBlend mode="normal" in="SourceGraphic" in2="BackgroundImageFix" result="shape"/>
<feGaussianBlur stdDeviation="0.5" result="effect1_foregroundBlur_11_587"/>
</filter>
<filter id="filter2_f_11_587" x="34.4209" y="161.688" width="87.9595" height="111.158" filterUnits="userSpaceOnUse" color-interpolation-filters="sRGB">
<feFlood flood-opacity="0" result="BackgroundImageFix"/>
<feBlend mode="normal" in="SourceGraphic" in2="BackgroundImageFix" result="shape"/>
<feGaussianBlur stdDeviation="0.5" result="effect1_foregroundBlur_11_587"/>
</filter>
<filter id="filter3_f_11_587" x="219.11" y="109.408" width="179.125" height="226.925" filterUnits="userSpaceOnUse" color-interpolation-filters="sRGB">
<feFlood flood-opacity="0" result="BackgroundImageFix"/>
<feBlend mode="normal" in="SourceGraphic" in2="BackgroundImageFix" result="shape"/>
<feGaussianBlur stdDeviation="0.5" result="effect1_foregroundBlur_11_587"/>
</filter>
<filter id="filter4_f_11_587" x="474.282" y="62.8494" width="255.079" height="323.377" filterUnits="userSpaceOnUse" color-interpolation-filters="sRGB">
<feFlood flood-opacity="0" result="BackgroundImageFix"/>
<feBlend mode="normal" in="SourceGraphic" in2="BackgroundImageFix" result="shape"/>
<feGaussianBlur stdDeviation="0.5" result="effect1_foregroundBlur_11_587"/>
</filter>
<linearGradient id="paint0_linear_11_587" x1="1151.91" y1="141.002" x2="1151.91" y2="282.969" gradientUnits="userSpaceOnUse">
<stop stop-color="#CE6400"/>
<stop offset="0.0449805" stop-color="#DF8401"/>
<stop offset="0.888349" stop-color="#E59001"/>
<stop offset="1" stop-color="#F39700" stop-opacity="0"/>
</linearGradient>
<radialGradient id="paint1_radial_11_587" cx="0" cy="0" r="1" gradientUnits="userSpaceOnUse" gradientTransform="translate(1106.59 174.23) rotate(64.1015) scale(103.721 98.8203)">
<stop stop-color="#F0B300"/>
<stop offset="0.322917" stop-color="#F0B300"/>
<stop offset="0.520833" stop-color="#EAA502"/>
<stop offset="1" stop-color="#EAA502"/>
</radialGradient>
<linearGradient id="paint2_linear_11_587" x1="1083.58" y1="183.861" x2="1169.3" y2="261.135" gradientUnits="userSpaceOnUse">
<stop stop-color="#FFF301"/>
<stop offset="0.139917" stop-color="#FFF301"/>
<stop offset="0.144033" stop-color="#FDDD00"/>
<stop offset="0.29832" stop-color="#FDDD00"/>
<stop offset="0.300796" stop-color="#FFF301"/>
<stop offset="0.548742" stop-color="#FFF301"/>
<stop offset="0.552564" stop-color="#FDDD00"/>
<stop offset="0.71816" stop-color="#FDDD00"/>
<stop offset="0.723753" stop-color="#FEF300"/>
<stop offset="1" stop-color="#FEF200"/>
</linearGradient>
<linearGradient id="paint3_linear_11_587" x1="1099.12" y1="180.628" x2="1163.51" y2="239.048" gradientUnits="userSpaceOnUse">
<stop stop-color="#FFF301"/>
<stop offset="0.139917" stop-color="#FFF301"/>
<stop offset="0.144033" stop-color="#FDDD00"/>
<stop offset="0.29832" stop-color="#FDDD00"/>
<stop offset="0.300796" stop-color="#FFF301"/>
<stop offset="0.548742" stop-color="#FFF301"/>
<stop offset="0.552564" stop-color="#FDDD00"/>
<stop offset="0.71816" stop-color="#FDDD00"/>
<stop offset="0.723753" stop-color="#FEF300"/>
<stop offset="1" stop-color="#FEF200"/>
</linearGradient>
<linearGradient id="paint4_linear_11_587" x1="943.041" y1="65.7209" x2="943.041" y2="358.249" gradientUnits="userSpaceOnUse">
<stop stop-color="#CE6400"/>
<stop offset="0.0449805" stop-color="#DF8401"/>
<stop offset="0.888349" stop-color="#E59001"/>
<stop offset="1" stop-color="#F39700" stop-opacity="0"/>
</linearGradient>
<radialGradient id="paint5_radial_11_587" cx="0" cy="0" r="1" gradientUnits="userSpaceOnUse" gradientTransform="translate(849.661 134.189) rotate(64.1015) scale(213.721 203.622)">
<stop stop-color="#F0B300"/>
<stop offset="0.322917" stop-color="#F0B300"/>
<stop offset="0.520833" stop-color="#EAA502"/>
<stop offset="1" stop-color="#EAA502"/>
</radialGradient>
<linearGradient id="paint6_linear_11_587" x1="802.247" y1="154.033" x2="978.862" y2="313.259" gradientUnits="userSpaceOnUse">
<stop stop-color="#FFF301"/>
<stop offset="0.139917" stop-color="#FFF301"/>
<stop offset="0.144033" stop-color="#FDDD00"/>
<stop offset="0.29832" stop-color="#FDDD00"/>
<stop offset="0.300796" stop-color="#FFF301"/>
<stop offset="0.548742" stop-color="#FFF301"/>
<stop offset="0.552564" stop-color="#FDDD00"/>
<stop offset="0.71816" stop-color="#FDDD00"/>
<stop offset="0.723753" stop-color="#FEF300"/>
<stop offset="1" stop-color="#FEF200"/>
</linearGradient>
<linearGradient id="paint7_linear_11_587" x1="834.262" y1="147.373" x2="966.934" y2="267.75" gradientUnits="userSpaceOnUse">
<stop stop-color="#FFF301"/>
<stop offset="0.139917" stop-color="#FFF301"/>
<stop offset="0.144033" stop-color="#FDDD00"/>
<stop offset="0.29832" stop-color="#FDDD00"/>
<stop offset="0.300796" stop-color="#FFF301"/>
<stop offset="0.548742" stop-color="#FFF301"/>
<stop offset="0.552564" stop-color="#FDDD00"/>
<stop offset="0.71816" stop-color="#FDDD00"/>
<stop offset="0.723753" stop-color="#FEF300"/>
<stop offset="1" stop-color="#FEF200"/>
</linearGradient>
<linearGradient id="paint8_linear_11_587" x1="88.9071" y1="141.002" x2="88.9071" y2="282.969" gradientUnits="userSpaceOnUse">
<stop stop-color="#CE6400"/>
<stop offset="0.0449805" stop-color="#DF8401"/>
<stop offset="0.888349" stop-color="#E59001"/>
<stop offset="1" stop-color="#F39700" stop-opacity="0"/>
</linearGradient>
<radialGradient id="paint9_radial_11_587" cx="0" cy="0" r="1" gradientUnits="userSpaceOnUse" gradientTransform="translate(43.5894 174.23) rotate(64.1015) scale(103.721 98.8203)">
<stop stop-color="#F0B300"/>
<stop offset="0.322917" stop-color="#F0B300"/>
<stop offset="0.520833" stop-color="#EAA502"/>
<stop offset="1" stop-color="#EAA502"/>
</radialGradient>
<linearGradient id="paint10_linear_11_587" x1="20.5786" y1="183.861" x2="106.292" y2="261.135" gradientUnits="userSpaceOnUse">
<stop stop-color="#FFF301"/>
<stop offset="0.139917" stop-color="#FFF301"/>
<stop offset="0.144033" stop-color="#FDDD00"/>
<stop offset="0.29832" stop-color="#FDDD00"/>
<stop offset="0.300796" stop-color="#FFF301"/>
<stop offset="0.548742" stop-color="#FFF301"/>
<stop offset="0.552564" stop-color="#FDDD00"/>
<stop offset="0.71816" stop-color="#FDDD00"/>
<stop offset="0.723753" stop-color="#FEF300"/>
<stop offset="1" stop-color="#FEF200"/>
</linearGradient>
<linearGradient id="paint11_linear_11_587" x1="36.1156" y1="180.628" x2="100.503" y2="239.048" gradientUnits="userSpaceOnUse">
<stop stop-color="#FFF301"/>
<stop offset="0.139917" stop-color="#FFF301"/>
<stop offset="0.144033" stop-color="#FDDD00"/>
<stop offset="0.29832" stop-color="#FDDD00"/>
<stop offset="0.300796" stop-color="#FFF301"/>
<stop offset="0.548742" stop-color="#FFF301"/>
<stop offset="0.552564" stop-color="#FDDD00"/>
<stop offset="0.71816" stop-color="#FDDD00"/>
<stop offset="0.723753" stop-color="#FEF300"/>
<stop offset="1" stop-color="#FEF200"/>
</linearGradient>
<linearGradient id="paint12_linear_11_587" x1="330.323" y1="65.7209" x2="330.323" y2="358.249" gradientUnits="userSpaceOnUse">
<stop stop-color="#CE6400"/>
<stop offset="0.0449805" stop-color="#DF8401"/>
<stop offset="0.888349" stop-color="#E59001"/>
<stop offset="1" stop-color="#F39700" stop-opacity="0"/>
</linearGradient>
<radialGradient id="paint13_radial_11_587" cx="0" cy="0" r="1" gradientUnits="userSpaceOnUse" gradientTransform="translate(236.943 134.189) rotate(64.1015) scale(213.721 203.622)">
<stop stop-color="#F0B300"/>
<stop offset="0.322917" stop-color="#F0B300"/>
<stop offset="0.520833" stop-color="#EAA502"/>
<stop offset="1" stop-color="#EAA502"/>
</radialGradient>
<linearGradient id="paint14_linear_11_587" x1="189.529" y1="154.033" x2="366.144" y2="313.259" gradientUnits="userSpaceOnUse">
<stop stop-color="#FFF301"/>
<stop offset="0.139917" stop-color="#FFF301"/>
<stop offset="0.144033" stop-color="#FDDD00"/>
<stop offset="0.29832" stop-color="#FDDD00"/>
<stop offset="0.300796" stop-color="#FFF301"/>
<stop offset="0.548742" stop-color="#FFF301"/>
<stop offset="0.552564" stop-color="#FDDD00"/>
<stop offset="0.71816" stop-color="#FDDD00"/>
<stop offset="0.723753" stop-color="#FEF300"/>
<stop offset="1" stop-color="#FEF200"/>
</linearGradient>
<linearGradient id="paint15_linear_11_587" x1="221.544" y1="147.373" x2="354.217" y2="267.75" gradientUnits="userSpaceOnUse">
<stop stop-color="#FFF301"/>
<stop offset="0.139917" stop-color="#FFF301"/>
<stop offset="0.144033" stop-color="#FDDD00"/>
<stop offset="0.29832" stop-color="#FDDD00"/>
<stop offset="0.300796" stop-color="#FFF301"/>
<stop offset="0.548742" stop-color="#FFF301"/>
<stop offset="0.552564" stop-color="#FDDD00"/>
<stop offset="0.71816" stop-color="#FDDD00"/>
<stop offset="0.723753" stop-color="#FEF300"/>
<stop offset="1" stop-color="#FEF200"/>
</linearGradient>
<linearGradient id="paint16_linear_11_587" x1="632.756" y1="0" x2="632.756" y2="417.97" gradientUnits="userSpaceOnUse">
<stop stop-color="#CE6400"/>
<stop offset="0.0449805" stop-color="#DF8401"/>
<stop offset="0.888349" stop-color="#E59001"/>
<stop offset="1" stop-color="#F39700" stop-opacity="0"/>
</linearGradient>
<radialGradient id="paint17_radial_11_587" cx="0" cy="0" r="1" gradientUnits="userSpaceOnUse" gradientTransform="translate(499.333 97.829) rotate(64.1015) scale(305.368 290.94)">
<stop stop-color="#F0B300"/>
<stop offset="0.322917" stop-color="#F0B300"/>
<stop offset="0.520833" stop-color="#EAA502"/>
<stop offset="1" stop-color="#EAA502"/>
</radialGradient>
<linearGradient id="paint18_linear_11_587" x1="431.587" y1="126.182" x2="683.937" y2="353.688" gradientUnits="userSpaceOnUse">
<stop stop-color="#FFF301"/>
<stop offset="0.139917" stop-color="#FFF301"/>
<stop offset="0.144033" stop-color="#FDDD00"/>
<stop offset="0.29832" stop-color="#FDDD00"/>
<stop offset="0.300796" stop-color="#FFF301"/>
<stop offset="0.548742" stop-color="#FFF301"/>
<stop offset="0.552564" stop-color="#FDDD00"/>
<stop offset="0.71816" stop-color="#FDDD00"/>
<stop offset="0.723753" stop-color="#FEF300"/>
<stop offset="1" stop-color="#FEF200"/>
</linearGradient>
<linearGradient id="paint19_linear_11_587" x1="477.33" y1="116.666" x2="666.895" y2="288.663" gradientUnits="userSpaceOnUse">
<stop stop-color="#FFF301"/>
<stop offset="0.139917" stop-color="#FFF301"/>
<stop offset="0.144033" stop-color="#FDDD00"/>
<stop offset="0.29832" stop-color="#FDDD00"/>
<stop offset="0.300796" stop-color="#FFF301"/>
<stop offset="0.548742" stop-color="#FFF301"/>
<stop offset="0.552564" stop-color="#FDDD00"/>
<stop offset="0.71816" stop-color="#FDDD00"/>
<stop offset="0.723753" stop-color="#FEF300"/>
<stop offset="1" stop-color="#FEF200"/>
</linearGradient>
</defs>
</svg>
