<svg width="1232" height="386" viewBox="0 0 1232 386" fill="none" xmlns="http://www.w3.org/2000/svg">
<path d="M969.234 288.821V280.071H971.222V288.821H969.234ZM966.28 280.351V278.601H974.176V280.351H966.28ZM983.064 289.087C982.14 289.087 981.337 288.924 980.656 288.597C979.984 288.271 979.424 287.846 978.976 287.323C978.537 286.791 978.206 286.222 977.982 285.615C977.767 284.999 977.66 284.407 977.66 283.837V283.529C977.66 282.904 977.772 282.283 977.996 281.667C978.22 281.042 978.556 280.477 979.004 279.973C979.461 279.469 980.026 279.068 980.698 278.769C981.37 278.461 982.158 278.307 983.064 278.307C983.96 278.307 984.744 278.461 985.416 278.769C986.088 279.068 986.648 279.469 987.096 279.973C987.553 280.477 987.894 281.042 988.118 281.667C988.342 282.283 988.454 282.904 988.454 283.529V283.837C988.454 284.407 988.342 284.999 988.118 285.615C987.903 286.222 987.572 286.791 987.124 287.323C986.685 287.846 986.125 288.271 985.444 288.597C984.772 288.924 983.978 289.087 983.064 289.087ZM983.064 287.239C983.586 287.239 984.053 287.146 984.464 286.959C984.884 286.773 985.238 286.516 985.528 286.189C985.826 285.853 986.05 285.475 986.2 285.055C986.358 284.626 986.438 284.173 986.438 283.697C986.438 283.184 986.358 282.713 986.2 282.283C986.05 281.854 985.826 281.481 985.528 281.163C985.238 280.846 984.884 280.599 984.464 280.421C984.044 280.244 983.577 280.155 983.064 280.155C982.541 280.155 982.07 280.244 981.65 280.421C981.23 280.599 980.87 280.846 980.572 281.163C980.282 281.481 980.058 281.854 979.9 282.283C979.75 282.713 979.676 283.184 979.676 283.697C979.676 284.173 979.75 284.626 979.9 285.055C980.058 285.475 980.282 285.853 980.572 286.189C980.87 286.516 981.23 286.773 981.65 286.959C982.07 287.146 982.541 287.239 983.064 287.239ZM999.797 288.821L996.059 284.047H994.617L999.055 278.601H1001.34L997.333 283.501L997.277 282.521L1002.22 288.821H999.797ZM993.175 288.821V278.601H995.163V288.821H993.175ZM1006.16 288.821V278.601H1008.11V288.821H1006.16ZM1007.83 288.821V287.141H1012.46V288.821H1007.83ZM1007.83 284.467V282.787H1012.1V284.467H1007.83ZM1007.83 280.281V278.601H1012.35V280.281H1007.83ZM1017.3 288.821V278.601H1020.56L1024.86 287.169H1025.32L1025.04 287.421V278.601H1026.92V288.821H1023.64L1019.34 280.253H1018.87L1019.15 280.001V288.821H1017.3Z" fill="#FF6C00"/>
<path d="M997.546 230.396C968.913 230.396 945.702 253.607 945.702 282.239C945.702 310.872 968.913 334.083 997.546 334.083C1023.49 334.083 1044.99 315.022 1048.79 290.139" stroke="#FF6C00" stroke-width="0.987501" stroke-dasharray="3.95 3.95"/>
<circle cx="999.273" cy="282.981" r="61.4719" stroke="url(#paint0_linear_2_5935)" stroke-width="0.987501"/>
<path d="M925.001 375.409C923.668 375.409 922.528 375.182 921.581 374.729C920.648 374.262 919.888 373.655 919.301 372.909C918.728 372.149 918.301 371.335 918.021 370.469C917.755 369.589 917.621 368.742 917.621 367.929V367.489C917.621 366.595 917.761 365.709 918.041 364.829C918.321 363.949 918.748 363.149 919.321 362.429C919.908 361.709 920.661 361.129 921.581 360.689C922.515 360.249 923.615 360.029 924.881 360.029C926.201 360.029 927.341 360.262 928.301 360.729C929.261 361.195 930.021 361.849 930.581 362.689C931.155 363.515 931.495 364.495 931.601 365.629H929.181C929.075 364.882 928.821 364.262 928.421 363.769C928.035 363.262 927.535 362.882 926.921 362.629C926.321 362.375 925.641 362.249 924.881 362.249C924.095 362.249 923.395 362.389 922.781 362.669C922.181 362.949 921.681 363.335 921.281 363.829C920.881 364.322 920.575 364.902 920.361 365.569C920.161 366.222 920.061 366.942 920.061 367.729C920.061 368.475 920.161 369.182 920.361 369.849C920.575 370.502 920.888 371.082 921.301 371.589C921.715 372.095 922.228 372.489 922.841 372.769C923.468 373.049 924.188 373.189 925.001 373.189C926.175 373.189 927.161 372.902 927.961 372.329C928.761 371.742 929.248 370.909 929.421 369.829H931.861C931.728 370.855 931.381 371.795 930.821 372.649C930.261 373.489 929.495 374.162 928.521 374.669C927.548 375.162 926.375 375.409 925.001 375.409ZM934.239 375.049V364.269H936.099V368.769H936.019C936.019 367.222 936.359 366.069 937.039 365.309C937.719 364.535 938.725 364.149 940.059 364.149H940.439V366.209H939.719C938.705 366.209 937.925 366.482 937.379 367.029C936.845 367.562 936.579 368.329 936.579 369.329V375.049H934.239ZM942.352 379.269V377.209H944.132C944.545 377.209 944.898 377.155 945.192 377.049C945.485 376.955 945.725 376.782 945.912 376.529C946.098 376.289 946.252 375.962 946.372 375.549L949.512 364.269H951.772L948.372 376.109C948.158 376.855 947.858 377.462 947.472 377.929C947.098 378.395 946.618 378.735 946.032 378.949C945.458 379.162 944.765 379.269 943.952 379.269H942.352ZM945.672 374.809V372.909H947.992V374.809H945.672ZM945.092 374.809L941.432 364.269H943.812L947.312 374.809H945.092ZM953.965 379.049V364.269H955.825V368.929L955.465 368.909C955.532 367.775 955.772 366.842 956.185 366.109C956.599 365.375 957.145 364.829 957.825 364.469C958.505 364.109 959.252 363.929 960.065 363.929C960.839 363.929 961.539 364.075 962.165 364.369C962.792 364.649 963.332 365.042 963.785 365.549C964.239 366.055 964.579 366.642 964.805 367.309C965.045 367.975 965.165 368.695 965.165 369.469V369.849C965.165 370.609 965.045 371.329 964.805 372.009C964.565 372.675 964.219 373.262 963.765 373.769C963.312 374.275 962.772 374.675 962.145 374.969C961.519 375.262 960.819 375.409 960.045 375.409C959.259 375.409 958.525 375.242 957.845 374.909C957.165 374.575 956.605 374.042 956.165 373.309C955.725 372.575 955.479 371.622 955.425 370.449L956.305 371.929V379.049H953.965ZM959.545 373.389C960.199 373.389 960.772 373.235 961.265 372.929C961.759 372.609 962.139 372.169 962.405 371.609C962.685 371.035 962.825 370.382 962.825 369.649C962.825 368.915 962.685 368.269 962.405 367.709C962.139 367.149 961.759 366.715 961.265 366.409C960.785 366.089 960.212 365.929 959.545 365.929C958.959 365.929 958.412 366.062 957.905 366.329C957.399 366.595 956.992 366.982 956.685 367.489C956.379 367.982 956.225 368.582 956.225 369.289V370.149C956.225 370.829 956.379 371.415 956.685 371.909C957.005 372.389 957.419 372.755 957.925 373.009C958.432 373.262 958.972 373.389 959.545 373.389ZM972.272 375.169C971.379 375.169 970.625 375.049 970.012 374.809C969.399 374.569 968.932 374.155 968.612 373.569C968.305 372.982 968.152 372.189 968.152 371.189V361.129H970.372V371.389C970.372 371.949 970.519 372.382 970.812 372.689C971.119 372.982 971.545 373.129 972.092 373.129H973.892V375.169H972.272ZM966.372 366.009V364.269H973.892V366.009H966.372ZM981.428 375.409C980.481 375.409 979.648 375.255 978.928 374.949C978.208 374.629 977.601 374.209 977.108 373.689C976.614 373.169 976.241 372.582 975.988 371.929C975.734 371.262 975.608 370.575 975.608 369.869V369.469C975.608 368.762 975.734 368.075 975.988 367.409C976.254 366.742 976.634 366.149 977.128 365.629C977.634 365.095 978.248 364.675 978.968 364.369C979.688 364.062 980.508 363.909 981.428 363.909C982.348 363.909 983.161 364.062 983.868 364.369C984.588 364.675 985.201 365.095 985.708 365.629C986.214 366.149 986.594 366.742 986.848 367.409C987.114 368.075 987.248 368.762 987.248 369.469V369.869C987.248 370.575 987.121 371.262 986.868 371.929C986.614 372.582 986.241 373.169 985.748 373.689C985.254 374.209 984.648 374.629 983.928 374.949C983.208 375.255 982.374 375.409 981.428 375.409ZM981.428 373.369C982.161 373.369 982.788 373.209 983.308 372.889C983.828 372.555 984.221 372.109 984.488 371.549C984.768 370.989 984.908 370.362 984.908 369.669C984.908 368.962 984.768 368.329 984.488 367.769C984.208 367.209 983.808 366.769 983.288 366.449C982.768 366.115 982.148 365.949 981.428 365.949C980.708 365.949 980.088 366.115 979.568 366.449C979.048 366.769 978.648 367.209 978.368 367.769C978.088 368.329 977.948 368.962 977.948 369.669C977.948 370.362 978.081 370.989 978.348 371.549C978.628 372.109 979.028 372.555 979.548 372.889C980.068 373.209 980.694 373.369 981.428 373.369ZM994.602 375.409C993.682 375.409 992.876 375.255 992.182 374.949C991.502 374.629 990.936 374.202 990.482 373.669C990.042 373.122 989.709 372.522 989.482 371.869C989.269 371.202 989.162 370.529 989.162 369.849V369.489C989.162 368.782 989.276 368.102 989.502 367.449C989.729 366.782 990.069 366.182 990.522 365.649C990.976 365.115 991.536 364.695 992.202 364.389C992.882 364.069 993.676 363.909 994.582 363.909C995.502 363.909 996.322 364.082 997.042 364.429C997.776 364.775 998.362 365.269 998.802 365.909C999.242 366.535 999.489 367.269 999.542 368.109H997.282C997.202 367.509 996.929 367.002 996.462 366.589C996.009 366.175 995.382 365.969 994.582 365.969C993.889 365.969 993.316 366.129 992.862 366.449C992.409 366.769 992.069 367.209 991.842 367.769C991.616 368.315 991.502 368.949 991.502 369.669C991.502 370.362 991.609 370.989 991.822 371.549C992.049 372.109 992.389 372.549 992.842 372.869C993.309 373.189 993.896 373.349 994.602 373.349C995.149 373.349 995.616 373.255 996.002 373.069C996.402 372.869 996.722 372.609 996.962 372.289C997.202 371.955 997.342 371.575 997.382 371.149H999.662C999.622 372.015 999.376 372.769 998.922 373.409C998.469 374.035 997.869 374.529 997.122 374.889C996.376 375.235 995.536 375.409 994.602 375.409ZM1005.79 375.369C1004.52 375.369 1003.55 374.962 1002.87 374.149C1002.19 373.322 1001.85 372.109 1001.85 370.509V364.269H1004.19V370.829C1004.19 371.575 1004.4 372.169 1004.81 372.609C1005.22 373.035 1005.78 373.249 1006.49 373.249C1007.21 373.249 1007.8 373.022 1008.25 372.569C1008.72 372.102 1008.95 371.469 1008.95 370.669V364.269H1011.29V375.049H1009.43V370.449H1009.67C1009.67 371.529 1009.52 372.435 1009.23 373.169C1008.95 373.889 1008.53 374.435 1007.97 374.809C1007.42 375.182 1006.73 375.369 1005.89 375.369H1005.79ZM1014.77 375.049V364.269H1016.63V368.769H1016.55C1016.55 367.222 1016.89 366.069 1017.57 365.309C1018.25 364.535 1019.25 364.149 1020.59 364.149H1020.97V366.209H1020.25C1019.23 366.209 1018.45 366.482 1017.91 367.029C1017.37 367.562 1017.11 368.329 1017.11 369.329V375.049H1014.77ZM1023.05 375.049V364.269H1024.91V368.769H1024.83C1024.83 367.222 1025.17 366.069 1025.85 365.309C1026.53 364.535 1027.53 364.149 1028.87 364.149H1029.25V366.209H1028.53C1027.51 366.209 1026.73 366.482 1026.19 367.029C1025.65 367.562 1025.39 368.329 1025.39 369.329V375.049H1023.05ZM1035.93 375.409C1035 375.409 1034.18 375.249 1033.49 374.929C1032.8 374.609 1032.23 374.189 1031.79 373.669C1031.35 373.135 1031.02 372.542 1030.79 371.889C1030.58 371.222 1030.47 370.542 1030.47 369.849V369.469C1030.47 368.762 1030.58 368.082 1030.79 367.429C1031.02 366.762 1031.35 366.169 1031.79 365.649C1032.23 365.115 1032.78 364.695 1033.45 364.389C1034.13 364.069 1034.92 363.909 1035.81 363.909C1036.97 363.909 1037.94 364.162 1038.71 364.669C1039.48 365.175 1040.06 365.835 1040.45 366.649C1040.84 367.449 1041.03 368.315 1041.03 369.249V370.189H1031.47V368.609H1039.45L1038.81 369.409C1038.81 368.689 1038.7 368.069 1038.47 367.549C1038.24 367.015 1037.91 366.609 1037.47 366.329C1037.03 366.035 1036.48 365.889 1035.81 365.889C1035.12 365.889 1034.54 366.049 1034.07 366.369C1033.6 366.689 1033.26 367.129 1033.03 367.689C1032.8 368.249 1032.69 368.909 1032.69 369.669C1032.69 370.389 1032.8 371.035 1033.03 371.609C1033.26 372.169 1033.61 372.615 1034.09 372.949C1034.57 373.269 1035.18 373.429 1035.93 373.429C1036.68 373.429 1037.29 373.269 1037.77 372.949C1038.25 372.615 1038.54 372.229 1038.65 371.789H1040.83C1040.68 372.522 1040.38 373.162 1039.93 373.709C1039.49 374.255 1038.93 374.675 1038.25 374.969C1037.57 375.262 1036.8 375.409 1035.93 375.409ZM1043.56 375.049V364.269H1045.42V368.889H1045.2C1045.2 367.822 1045.34 366.922 1045.62 366.189C1045.91 365.455 1046.35 364.902 1046.94 364.529C1047.52 364.142 1048.25 363.949 1049.12 363.949H1049.22C1050.55 363.949 1051.54 364.369 1052.2 365.209C1052.85 366.049 1053.18 367.275 1053.18 368.889V375.049H1050.84V368.569C1050.84 367.822 1050.62 367.222 1050.2 366.769C1049.77 366.302 1049.18 366.069 1048.44 366.069C1047.68 366.069 1047.06 366.309 1046.6 366.789C1046.13 367.255 1045.9 367.882 1045.9 368.669V375.049H1043.56ZM1061.11 375.409C1060.19 375.409 1059.38 375.255 1058.69 374.949C1058.01 374.629 1057.44 374.202 1056.99 373.669C1056.55 373.122 1056.21 372.522 1055.99 371.869C1055.77 371.202 1055.67 370.529 1055.67 369.849V369.489C1055.67 368.782 1055.78 368.102 1056.01 367.449C1056.23 366.782 1056.57 366.182 1057.03 365.649C1057.48 365.115 1058.04 364.695 1058.71 364.389C1059.39 364.069 1060.18 363.909 1061.09 363.909C1062.01 363.909 1062.83 364.082 1063.55 364.429C1064.28 364.775 1064.87 365.269 1065.31 365.909C1065.75 366.535 1065.99 367.269 1066.05 368.109H1063.79C1063.71 367.509 1063.43 367.002 1062.97 366.589C1062.51 366.175 1061.89 365.969 1061.09 365.969C1060.39 365.969 1059.82 366.129 1059.37 366.449C1058.91 366.769 1058.57 367.209 1058.35 367.769C1058.12 368.315 1058.01 368.949 1058.01 369.669C1058.01 370.362 1058.11 370.989 1058.33 371.549C1058.55 372.109 1058.89 372.549 1059.35 372.869C1059.81 373.189 1060.4 373.349 1061.11 373.349C1061.65 373.349 1062.12 373.255 1062.51 373.069C1062.91 372.869 1063.23 372.609 1063.47 372.289C1063.71 371.955 1063.85 371.575 1063.89 371.149H1066.17C1066.13 372.015 1065.88 372.769 1065.43 373.409C1064.97 374.035 1064.37 374.529 1063.63 374.889C1062.88 375.235 1062.04 375.409 1061.11 375.409ZM1068.07 379.269V377.209H1069.85C1070.27 377.209 1070.62 377.155 1070.91 377.049C1071.21 376.955 1071.45 376.782 1071.63 376.529C1071.82 376.289 1071.97 375.962 1072.09 375.549L1075.23 364.269H1077.49L1074.09 376.109C1073.88 376.855 1073.58 377.462 1073.19 377.929C1072.82 378.395 1072.34 378.735 1071.75 378.949C1071.18 379.162 1070.49 379.269 1069.67 379.269H1068.07ZM1071.39 374.809V372.909H1073.71V374.809H1071.39ZM1070.81 374.809L1067.15 364.269H1069.53L1073.03 374.809H1070.81Z" fill="white"/>
<path d="M205.174 105.341C203.974 105.341 202.907 105.148 201.974 104.761C201.04 104.361 200.247 103.815 199.594 103.121C198.94 102.428 198.44 101.621 198.094 100.701C197.76 99.7814 197.594 98.8081 197.594 97.7814V97.3414C197.594 96.4214 197.754 95.5214 198.074 94.6414C198.394 93.7614 198.86 92.9681 199.474 92.2614C200.1 91.5548 200.86 90.9948 201.754 90.5814C202.66 90.1681 203.694 89.9614 204.854 89.9614C206.094 89.9614 207.2 90.2014 208.174 90.6814C209.147 91.1481 209.927 91.8014 210.514 92.6414C211.1 93.4681 211.44 94.4281 211.534 95.5214H209.094C209.014 94.8014 208.767 94.1948 208.354 93.7014C207.954 93.2081 207.447 92.8348 206.834 92.5814C206.234 92.3148 205.574 92.1814 204.854 92.1814C204.134 92.1814 203.474 92.3148 202.874 92.5814C202.287 92.8348 201.78 93.2014 201.354 93.6814C200.927 94.1481 200.6 94.7148 200.374 95.3814C200.147 96.0348 200.034 96.7681 200.034 97.5814C200.034 98.4881 200.154 99.2881 200.394 99.9814C200.647 100.675 201 101.261 201.454 101.741C201.907 102.208 202.447 102.568 203.074 102.821C203.714 103.061 204.414 103.181 205.174 103.181C206.227 103.181 207.147 102.968 207.934 102.541C208.734 102.101 209.334 101.535 209.734 100.841L209.114 103.181V99.1214H211.354V102.481C210.7 103.388 209.847 104.095 208.794 104.601C207.754 105.095 206.547 105.341 205.174 105.341ZM204.674 99.6014V97.7214H212.574V99.6014H204.674ZM221.414 104.981V101.761H221.034V98.1214C221.034 97.4548 220.861 96.9481 220.514 96.6014C220.167 96.2548 219.654 96.0814 218.974 96.0814C218.601 96.0814 218.187 96.0881 217.734 96.1014C217.281 96.1148 216.834 96.1348 216.394 96.1614C215.967 96.1748 215.587 96.1948 215.254 96.2214V94.2014C215.547 94.1748 215.867 94.1548 216.214 94.1414C216.574 94.1148 216.941 94.0948 217.314 94.0814C217.701 94.0681 218.067 94.0614 218.414 94.0614C219.507 94.0614 220.414 94.2014 221.134 94.4814C221.854 94.7614 222.387 95.2081 222.734 95.8214C223.094 96.4214 223.274 97.2281 223.274 98.2414V104.981H221.414ZM217.914 105.261C217.127 105.261 216.441 105.128 215.854 104.861C215.267 104.581 214.814 104.181 214.494 103.661C214.174 103.128 214.014 102.495 214.014 101.761C214.014 100.988 214.194 100.348 214.554 99.8414C214.927 99.3348 215.454 98.9548 216.134 98.7014C216.814 98.4481 217.627 98.3214 218.574 98.3214H221.274V99.8614H218.514C217.807 99.8614 217.267 100.035 216.894 100.381C216.521 100.715 216.334 101.155 216.334 101.701C216.334 102.248 216.521 102.688 216.894 103.021C217.267 103.341 217.807 103.501 218.514 103.501C218.927 103.501 219.321 103.428 219.694 103.281C220.067 103.121 220.374 102.861 220.614 102.501C220.867 102.141 221.007 101.635 221.034 100.981L221.634 101.761C221.567 102.521 221.381 103.161 221.074 103.681C220.781 104.188 220.367 104.581 219.834 104.861C219.314 105.128 218.674 105.261 217.914 105.261ZM226.535 104.981V94.2014H228.395V98.8414H228.175C228.175 97.7748 228.309 96.8748 228.575 96.1414C228.855 95.4081 229.269 94.8481 229.815 94.4614C230.375 94.0748 231.069 93.8814 231.895 93.8814H231.995C232.835 93.8814 233.529 94.0748 234.075 94.4614C234.635 94.8481 235.049 95.4081 235.315 96.1414C235.595 96.8748 235.735 97.7748 235.735 98.8414H235.095C235.095 97.7748 235.235 96.8748 235.515 96.1414C235.795 95.4081 236.215 94.8481 236.775 94.4614C237.335 94.0748 238.029 93.8814 238.855 93.8814H238.955C239.795 93.8814 240.495 94.0748 241.055 94.4614C241.615 94.8481 242.035 95.4081 242.315 96.1414C242.595 96.8748 242.735 97.7748 242.735 98.8414V104.981H240.395V98.5014C240.395 97.7148 240.195 97.1014 239.795 96.6614C239.409 96.2214 238.869 96.0014 238.175 96.0014C237.455 96.0014 236.882 96.2348 236.455 96.7014C236.029 97.1548 235.815 97.7881 235.815 98.6014V104.981H233.455V98.5014C233.455 97.7148 233.262 97.1014 232.875 96.6614C232.489 96.2214 231.949 96.0014 231.255 96.0014C230.535 96.0014 229.955 96.2348 229.515 96.7014C229.089 97.1548 228.875 97.7881 228.875 98.6014V104.981H226.535ZM250.688 105.341C249.755 105.341 248.942 105.181 248.248 104.861C247.555 104.541 246.988 104.121 246.548 103.601C246.108 103.068 245.775 102.475 245.548 101.821C245.335 101.155 245.228 100.475 245.228 99.7814V99.4014C245.228 98.6948 245.335 98.0148 245.548 97.3614C245.775 96.6948 246.108 96.1014 246.548 95.5814C246.988 95.0481 247.542 94.6281 248.208 94.3214C248.888 94.0014 249.675 93.8414 250.568 93.8414C251.728 93.8414 252.695 94.0948 253.468 94.6014C254.242 95.1081 254.822 95.7681 255.208 96.5814C255.595 97.3814 255.788 98.2481 255.788 99.1814V100.121H246.228V98.5414H254.208L253.568 99.3414C253.568 98.6214 253.455 98.0014 253.228 97.4814C253.002 96.9481 252.668 96.5414 252.228 96.2614C251.788 95.9681 251.235 95.8214 250.568 95.8214C249.875 95.8214 249.295 95.9814 248.828 96.3014C248.362 96.6214 248.015 97.0614 247.788 97.6214C247.562 98.1814 247.448 98.8414 247.448 99.6014C247.448 100.321 247.562 100.968 247.788 101.541C248.015 102.101 248.368 102.548 248.848 102.881C249.328 103.201 249.942 103.361 250.688 103.361C251.435 103.361 252.048 103.201 252.528 102.881C253.008 102.548 253.302 102.161 253.408 101.721H255.588C255.442 102.455 255.142 103.095 254.688 103.641C254.248 104.188 253.688 104.608 253.008 104.901C252.328 105.195 251.555 105.341 250.688 105.341ZM189.598 129.981V115.381H191.998V129.981H189.598ZM191.598 129.981V127.841H198.098V129.981H191.598ZM200.854 129.981V119.201H203.194V129.981H200.854ZM199.274 121.001V119.201H203.194V121.001H199.274ZM201.614 117.701C201.134 117.701 200.774 117.575 200.534 117.321C200.307 117.068 200.194 116.741 200.194 116.341C200.194 115.955 200.307 115.635 200.534 115.381C200.774 115.115 201.134 114.981 201.614 114.981C202.107 114.981 202.467 115.115 202.694 115.381C202.934 115.635 203.054 115.955 203.054 116.341C203.054 116.741 202.934 117.068 202.694 117.321C202.467 117.575 202.107 117.701 201.614 117.701ZM211.362 130.341C210.442 130.341 209.635 130.188 208.942 129.881C208.262 129.561 207.695 129.135 207.242 128.601C206.802 128.055 206.468 127.455 206.242 126.801C206.028 126.135 205.922 125.461 205.922 124.781V124.421C205.922 123.715 206.035 123.035 206.262 122.381C206.488 121.715 206.828 121.115 207.282 120.581C207.735 120.048 208.295 119.628 208.962 119.321C209.642 119.001 210.435 118.841 211.342 118.841C212.262 118.841 213.082 119.015 213.802 119.361C214.535 119.708 215.122 120.201 215.562 120.841C216.002 121.468 216.248 122.201 216.302 123.041H214.042C213.962 122.441 213.688 121.935 213.222 121.521C212.768 121.108 212.142 120.901 211.342 120.901C210.648 120.901 210.075 121.061 209.622 121.381C209.168 121.701 208.828 122.141 208.602 122.701C208.375 123.248 208.262 123.881 208.262 124.601C208.262 125.295 208.368 125.921 208.582 126.481C208.808 127.041 209.148 127.481 209.602 127.801C210.068 128.121 210.655 128.281 211.362 128.281C211.908 128.281 212.375 128.188 212.762 128.001C213.162 127.801 213.482 127.541 213.722 127.221C213.962 126.888 214.102 126.508 214.142 126.081H216.422C216.382 126.948 216.135 127.701 215.682 128.341C215.228 128.968 214.628 129.461 213.882 129.821C213.135 130.168 212.295 130.341 211.362 130.341ZM223.55 130.341C222.616 130.341 221.803 130.181 221.11 129.861C220.416 129.541 219.85 129.121 219.41 128.601C218.97 128.068 218.636 127.475 218.41 126.821C218.196 126.155 218.09 125.475 218.09 124.781V124.401C218.09 123.695 218.196 123.015 218.41 122.361C218.636 121.695 218.97 121.101 219.41 120.581C219.85 120.048 220.403 119.628 221.07 119.321C221.75 119.001 222.536 118.841 223.43 118.841C224.59 118.841 225.556 119.095 226.33 119.601C227.103 120.108 227.683 120.768 228.07 121.581C228.456 122.381 228.65 123.248 228.65 124.181V125.121H219.09V123.541H227.07L226.43 124.341C226.43 123.621 226.316 123.001 226.09 122.481C225.863 121.948 225.53 121.541 225.09 121.261C224.65 120.968 224.096 120.821 223.43 120.821C222.736 120.821 222.156 120.981 221.69 121.301C221.223 121.621 220.876 122.061 220.65 122.621C220.423 123.181 220.31 123.841 220.31 124.601C220.31 125.321 220.423 125.968 220.65 126.541C220.876 127.101 221.23 127.548 221.71 127.881C222.19 128.201 222.803 128.361 223.55 128.361C224.296 128.361 224.91 128.201 225.39 127.881C225.87 127.548 226.163 127.161 226.27 126.721H228.45C228.303 127.455 228.003 128.095 227.55 128.641C227.11 129.188 226.55 129.608 225.87 129.901C225.19 130.195 224.416 130.341 223.55 130.341ZM231.174 129.981V119.201H233.034V123.821H232.814C232.814 122.755 232.954 121.855 233.234 121.121C233.527 120.388 233.967 119.835 234.554 119.461C235.141 119.075 235.867 118.881 236.734 118.881H236.834C238.167 118.881 239.161 119.301 239.814 120.141C240.467 120.981 240.794 122.208 240.794 123.821V129.981H238.454V123.501C238.454 122.755 238.241 122.155 237.814 121.701C237.387 121.235 236.801 121.001 236.054 121.001C235.294 121.001 234.681 121.241 234.214 121.721C233.747 122.188 233.514 122.815 233.514 123.601V129.981H231.174ZM247.765 130.301C246.312 130.301 245.178 129.995 244.365 129.381C243.565 128.768 243.145 127.921 243.105 126.841H245.265C245.292 127.241 245.498 127.608 245.885 127.941C246.272 128.275 246.905 128.441 247.785 128.441C248.532 128.441 249.118 128.295 249.545 128.001C249.972 127.708 250.185 127.341 250.185 126.901C250.185 126.501 250.025 126.188 249.705 125.961C249.398 125.721 248.872 125.561 248.125 125.481L247.065 125.381C245.958 125.261 245.078 124.935 244.425 124.401C243.785 123.868 243.465 123.148 243.465 122.241C243.465 121.521 243.645 120.915 244.005 120.421C244.365 119.928 244.858 119.548 245.485 119.281C246.125 119.015 246.858 118.881 247.685 118.881C248.965 118.881 249.998 119.168 250.785 119.741C251.572 120.301 251.978 121.128 252.005 122.221H249.865C249.838 121.808 249.645 121.461 249.285 121.181C248.925 120.901 248.392 120.761 247.685 120.761C247.018 120.761 246.505 120.895 246.145 121.161C245.798 121.428 245.625 121.768 245.625 122.181C245.625 122.555 245.758 122.848 246.025 123.061C246.292 123.275 246.725 123.415 247.325 123.481L248.385 123.581C249.598 123.715 250.558 124.055 251.265 124.601C251.985 125.135 252.345 125.881 252.345 126.841C252.345 127.535 252.152 128.141 251.765 128.661C251.378 129.181 250.838 129.588 250.145 129.881C249.465 130.161 248.672 130.301 247.765 130.301ZM259.604 130.341C258.671 130.341 257.858 130.181 257.164 129.861C256.471 129.541 255.904 129.121 255.464 128.601C255.024 128.068 254.691 127.475 254.464 126.821C254.251 126.155 254.144 125.475 254.144 124.781V124.401C254.144 123.695 254.251 123.015 254.464 122.361C254.691 121.695 255.024 121.101 255.464 120.581C255.904 120.048 256.458 119.628 257.124 119.321C257.804 119.001 258.591 118.841 259.484 118.841C260.644 118.841 261.611 119.095 262.384 119.601C263.158 120.108 263.738 120.768 264.124 121.581C264.511 122.381 264.704 123.248 264.704 124.181V125.121H255.144V123.541H263.124L262.484 124.341C262.484 123.621 262.371 123.001 262.144 122.481C261.918 121.948 261.584 121.541 261.144 121.261C260.704 120.968 260.151 120.821 259.484 120.821C258.791 120.821 258.211 120.981 257.744 121.301C257.278 121.621 256.931 122.061 256.704 122.621C256.478 123.181 256.364 123.841 256.364 124.601C256.364 125.321 256.478 125.968 256.704 126.541C256.931 127.101 257.284 127.548 257.764 127.881C258.244 128.201 258.858 128.361 259.604 128.361C260.351 128.361 260.964 128.201 261.444 127.881C261.924 127.548 262.218 127.161 262.324 126.721H264.504C264.358 127.455 264.058 128.095 263.604 128.641C263.164 129.188 262.604 129.608 261.924 129.901C261.244 130.195 260.471 130.341 259.604 130.341Z" fill="white"/>
<path d="M183.72 244.526V234.306H185.708V244.526H183.72ZM185.428 244.526V242.776H189.838V244.526H185.428ZM195.266 244.526V234.306H197.254V244.526H195.266ZM208.191 244.792C207.267 244.792 206.473 244.629 205.811 244.302C205.148 243.976 204.607 243.551 204.187 243.028C203.776 242.506 203.473 241.936 203.277 241.32C203.081 240.704 202.983 240.112 202.983 239.542V239.234C202.983 238.6 203.081 237.974 203.277 237.358C203.482 236.742 203.795 236.182 204.215 235.678C204.635 235.174 205.167 234.773 205.811 234.474C206.464 234.166 207.234 234.012 208.121 234.012C209.045 234.012 209.847 234.18 210.529 234.516C211.219 234.843 211.77 235.31 212.181 235.916C212.591 236.514 212.839 237.214 212.923 238.016H210.921C210.846 237.55 210.678 237.158 210.417 236.84C210.165 236.514 209.843 236.271 209.451 236.112C209.059 235.944 208.615 235.86 208.121 235.86C207.617 235.86 207.169 235.949 206.777 236.126C206.385 236.294 206.058 236.537 205.797 236.854C205.535 237.172 205.335 237.545 205.195 237.974C205.064 238.404 204.999 238.88 204.999 239.402C204.999 239.906 205.064 240.373 205.195 240.802C205.335 241.232 205.54 241.61 205.811 241.936C206.081 242.254 206.413 242.501 206.805 242.678C207.206 242.856 207.668 242.944 208.191 242.944C208.956 242.944 209.6 242.758 210.123 242.384C210.655 242.002 210.977 241.47 211.089 240.788H213.091C212.997 241.516 212.75 242.184 212.349 242.79C211.947 243.397 211.397 243.882 210.697 244.246C209.997 244.61 209.161 244.792 208.191 244.792ZM218.548 244.526V234.306H220.494V244.526H218.548ZM220.214 244.526V242.846H224.848V244.526H220.214ZM220.214 240.172V238.492H224.484V240.172H220.214ZM220.214 235.986V234.306H224.736V235.986H220.214ZM230.668 244.526V234.306H233.93L238.228 242.874H238.69L238.41 243.126V234.306H240.286V244.526H237.01L232.712 235.958H232.236L232.516 235.706V244.526H230.668ZM250.075 244.792C249.169 244.792 248.404 244.648 247.779 244.358C247.163 244.069 246.691 243.672 246.365 243.168C246.038 242.655 245.875 242.076 245.875 241.432H247.821C247.821 241.703 247.895 241.969 248.045 242.23C248.194 242.482 248.432 242.688 248.759 242.846C249.095 243.005 249.533 243.084 250.075 243.084C250.56 243.084 250.966 243.014 251.293 242.874C251.619 242.734 251.862 242.552 252.021 242.328C252.179 242.095 252.259 241.834 252.259 241.544C252.259 241.18 252.105 240.891 251.797 240.676C251.489 240.452 251.013 240.312 250.369 240.256L249.473 240.186C248.493 240.102 247.709 239.799 247.121 239.276C246.542 238.744 246.253 238.044 246.253 237.176C246.253 236.523 246.407 235.963 246.715 235.496C247.023 235.02 247.452 234.656 248.003 234.404C248.563 234.143 249.216 234.012 249.963 234.012C250.737 234.012 251.405 234.148 251.965 234.418C252.525 234.689 252.959 235.072 253.267 235.566C253.575 236.052 253.729 236.626 253.729 237.288H251.783C251.783 237.008 251.713 236.752 251.573 236.518C251.442 236.276 251.241 236.084 250.971 235.944C250.709 235.795 250.373 235.72 249.963 235.72C249.571 235.72 249.244 235.786 248.983 235.916C248.721 236.047 248.525 236.224 248.395 236.448C248.264 236.672 248.199 236.915 248.199 237.176C248.199 237.494 248.315 237.774 248.549 238.016C248.782 238.25 249.151 238.385 249.655 238.422L250.551 238.506C251.279 238.562 251.918 238.716 252.469 238.968C253.019 239.22 253.444 239.561 253.743 239.99C254.051 240.42 254.205 240.938 254.205 241.544C254.205 242.188 254.037 242.758 253.701 243.252C253.365 243.738 252.884 244.116 252.259 244.386C251.643 244.657 250.915 244.792 250.075 244.792ZM259.802 244.526V234.306H261.748V244.526H259.802ZM261.468 244.526V242.846H266.102V244.526H261.468ZM261.468 240.172V238.492H265.738V240.172H261.468ZM261.468 235.986V234.306H265.99V235.986H261.468Z" fill="#FF6C00"/>
<rect x="167.902" y="262.805" width="114.145" height="93.5973" rx="1.67482" stroke="#FF6C00" stroke-width="1.80365"/>
<rect x="167.902" y="224.987" width="114.145" height="29.1161" rx="1.67482" stroke="#FF6C00" stroke-width="1.80365"/>
<rect width="58.7083" height="4.40312" transform="translate(183.145 275.847)" fill="white"/>
<rect width="58.7083" height="4.40312" transform="translate(183.145 294.926)" fill="white"/>
<rect width="58.7083" height="4.40312" transform="translate(183.145 314.007)" fill="white"/>
<rect width="58.7083" height="4.40312" transform="translate(183.145 333.087)" fill="white"/>
<rect width="11.7417" height="4.40312" transform="translate(251.393 275.847)" fill="#FF6C00"/>
<rect width="11.7417" height="4.40312" transform="translate(251.393 294.926)" fill="#FF6C00"/>
<rect width="11.7417" height="4.40312" transform="translate(251.393 314.007)" fill="#FF6C00"/>
<rect width="11.7417" height="4.40312" transform="translate(251.393 333.087)" fill="#FF6C00"/>
<path d="M224.932 208.671C225.141 208.88 225.479 208.88 225.688 208.671L229.093 205.267C229.302 205.058 229.302 204.719 229.093 204.51C228.884 204.301 228.545 204.301 228.336 204.51L225.31 207.536L222.284 204.51C222.075 204.301 221.736 204.301 221.527 204.51C221.319 204.719 221.319 205.058 221.527 205.267L224.932 208.671ZM224.775 150.429C224.775 151.7 224.775 152.925 224.775 154.105L225.845 154.104C225.845 152.925 225.845 151.7 225.845 150.429L224.775 150.429ZM224.775 161.187C224.775 163.817 224.775 166.149 224.775 168.213L225.845 168.213C225.845 166.149 225.845 163.817 225.845 161.187L224.775 161.187ZM224.775 175.297C224.775 179.753 224.775 181.809 224.775 182.449L225.845 182.449C225.845 181.809 225.845 179.753 225.845 175.297L224.775 175.297ZM224.775 176.273C224.775 176.913 224.775 178.968 224.775 183.425H225.845C225.845 178.968 225.845 176.913 225.845 176.273L224.775 176.273ZM224.775 190.509C224.775 192.572 224.775 194.904 224.775 197.534L225.845 197.534C225.845 194.904 225.845 192.572 225.845 190.509H224.775ZM224.775 204.617C224.775 205.796 224.775 207.021 224.775 208.293H225.845C225.845 207.021 225.845 205.796 225.845 204.617H224.775Z" fill="white"/>
<path d="M463.792 141.222L452.638 141.47L458.43 151.006L463.792 141.222ZM311.742 234.698L314.088 233.273L313.085 231.622L310.739 233.046L311.742 234.698ZM318.78 230.424L323.471 227.575L322.468 225.923L317.777 228.772L318.78 230.424ZM328.163 224.725L332.854 221.876L331.851 220.224L327.16 223.074L328.163 224.725ZM337.546 219.027L342.238 216.177L341.234 214.525L336.543 217.375L337.546 219.027ZM346.929 213.328L351.621 210.479L350.618 208.827L345.926 211.676L346.929 213.328ZM356.312 207.629L361.004 204.78L360.001 203.128L355.309 205.977L356.312 207.629ZM365.695 201.93L368.041 200.506L367.038 198.854L364.692 200.279L365.695 201.93ZM407.995 176.24L410.341 174.816L409.338 173.164L406.992 174.589L407.995 176.24ZM415.033 171.966L419.724 169.117L418.721 167.465L414.029 170.315L415.033 171.966ZM424.416 166.268L429.107 163.418L428.104 161.767L423.413 164.616L424.416 166.268ZM433.799 160.569L438.49 157.72L437.487 156.068L432.796 158.917L433.799 160.569ZM443.182 154.87L447.874 152.021L446.87 150.369L442.179 153.219L443.182 154.87ZM452.565 149.172L457.257 146.322L456.254 144.671L451.562 147.52L452.565 149.172Z" fill="#FF6C00"/>
<path d="M386.333 192.62V177.624H389.487V192.62H386.333ZM380.644 186.59V183.684H395.207V186.59H380.644Z" fill="#FF6C00"/>
<path d="M786.929 138.153L798.083 138.401L792.292 147.937L786.929 138.153ZM938.979 231.629L936.633 230.204L937.636 228.552L939.982 229.977L938.979 231.629ZM931.942 227.355L927.25 224.505L928.253 222.854L932.945 225.703L931.942 227.355ZM922.558 221.656L917.867 218.807L918.87 217.155L923.562 220.004L922.558 221.656ZM913.175 215.957L908.484 213.108L909.487 211.456L914.178 214.305L913.175 215.957ZM903.792 210.259L899.101 207.409L900.104 205.757L904.795 208.607L903.792 210.259ZM894.409 204.56L889.717 201.71L890.721 200.059L895.412 202.908L894.409 204.56ZM885.026 198.861L882.68 197.436L883.683 195.785L886.029 197.209L885.026 198.861ZM842.726 173.171L840.38 171.746L841.383 170.095L843.729 171.519L842.726 173.171ZM835.689 168.897L830.997 166.048L832 164.396L836.692 167.245L835.689 168.897ZM826.306 163.198L821.614 160.349L822.617 158.697L827.309 161.547L826.306 163.198ZM816.922 157.5L812.231 154.65L813.234 152.999L817.926 155.848L816.922 157.5ZM807.539 151.801L802.848 148.952L803.851 147.3L808.542 150.149L807.539 151.801ZM798.156 146.102L793.465 143.253L794.468 141.601L799.159 144.451L798.156 146.102Z" fill="#FF6C00"/>
<path d="M864.388 189.551V174.555H861.234V189.551H864.388ZM870.077 183.522V180.615H855.514V183.522H870.077Z" fill="#FF6C00"/>
<path d="M591.604 258.429V245.589L592.484 246.269H588.624V243.829H594.424V258.429H591.604ZM605.396 258.429V245.929H608.236V258.429H605.396ZM601.176 246.329V243.829H612.456V246.329H601.176ZM618.376 258.809C617.416 258.809 616.569 258.655 615.836 258.349C615.102 258.042 614.482 257.629 613.976 257.109C613.469 256.575 613.082 255.975 612.816 255.309C612.562 254.642 612.436 253.949 612.436 253.229V252.809C612.436 252.062 612.569 251.355 612.836 250.689C613.116 250.009 613.509 249.409 614.016 248.889C614.536 248.355 615.162 247.942 615.896 247.649C616.629 247.342 617.456 247.189 618.376 247.189C619.296 247.189 620.122 247.342 620.856 247.649C621.589 247.942 622.209 248.355 622.716 248.889C623.236 249.409 623.629 250.009 623.896 250.689C624.162 251.355 624.296 252.062 624.296 252.809V253.229C624.296 253.949 624.162 254.642 623.896 255.309C623.642 255.975 623.262 256.575 622.756 257.109C622.249 257.629 621.629 258.042 620.896 258.349C620.162 258.655 619.322 258.809 618.376 258.809ZM618.376 256.429C619.056 256.429 619.629 256.282 620.096 255.989C620.562 255.682 620.916 255.275 621.156 254.769C621.396 254.249 621.516 253.662 621.516 253.009C621.516 252.342 621.389 251.755 621.136 251.249C620.896 250.729 620.536 250.322 620.056 250.029C619.589 249.722 619.029 249.569 618.376 249.569C617.722 249.569 617.156 249.722 616.676 250.029C616.209 250.322 615.849 250.729 615.596 251.249C615.342 251.755 615.216 252.342 615.216 253.009C615.216 253.662 615.336 254.249 615.576 254.769C615.829 255.275 616.189 255.682 616.656 255.989C617.122 256.282 617.696 256.429 618.376 256.429ZM634.33 258.429L630.69 253.349H629.07L633.69 247.569H636.59L632.33 252.909L632.39 251.509L637.47 258.429H634.33ZM626.73 258.429V243.829H629.51V258.429H626.73ZM643.582 258.809C642.649 258.809 641.829 258.649 641.122 258.329C640.429 258.009 639.849 257.582 639.382 257.049C638.929 256.502 638.582 255.895 638.342 255.229C638.115 254.562 638.002 253.882 638.002 253.189V252.809C638.002 252.089 638.115 251.395 638.342 250.729C638.582 250.049 638.929 249.449 639.382 248.929C639.849 248.395 640.422 247.975 641.102 247.669C641.782 247.349 642.569 247.189 643.462 247.189C644.635 247.189 645.615 247.449 646.402 247.969C647.202 248.475 647.802 249.149 648.202 249.989C648.602 250.815 648.802 251.709 648.802 252.669V253.669H639.182V251.969H647.062L646.202 252.809C646.202 252.115 646.102 251.522 645.902 251.029C645.702 250.535 645.395 250.155 644.982 249.889C644.582 249.622 644.075 249.489 643.462 249.489C642.849 249.489 642.329 249.629 641.902 249.909C641.475 250.189 641.149 250.595 640.922 251.129C640.709 251.649 640.602 252.275 640.602 253.009C640.602 253.689 640.709 254.295 640.922 254.829C641.135 255.349 641.462 255.762 641.902 256.069C642.342 256.362 642.902 256.509 643.582 256.509C644.262 256.509 644.815 256.375 645.242 256.109C645.669 255.829 645.942 255.489 646.062 255.089H648.622C648.462 255.835 648.155 256.489 647.702 257.049C647.249 257.609 646.669 258.042 645.962 258.349C645.269 258.655 644.475 258.809 643.582 258.809ZM651.124 258.429V247.569H653.324V252.229H653.124C653.124 251.122 653.271 250.202 653.564 249.469C653.858 248.722 654.291 248.162 654.864 247.789C655.451 247.415 656.178 247.229 657.044 247.229H657.164C658.458 247.229 659.438 247.649 660.104 248.489C660.771 249.315 661.104 250.555 661.104 252.209V258.429H658.324V251.969C658.324 251.302 658.131 250.762 657.744 250.349C657.371 249.935 656.851 249.729 656.184 249.729C655.504 249.729 654.951 249.942 654.524 250.369C654.111 250.782 653.904 251.342 653.904 252.049V258.429H651.124ZM620.41 275.909V273.669H630.01V275.909H620.41ZM620.41 279.969V277.729H630.01V279.969H620.41ZM592.326 307.429V294.589L593.206 295.269H589.346V292.829H595.146V307.429H592.326ZM610.039 307.809C608.786 307.809 607.679 307.602 606.719 307.189C605.772 306.762 604.972 306.195 604.319 305.489C603.679 304.769 603.192 303.962 602.859 303.069C602.539 302.162 602.379 301.222 602.379 300.249V299.809C602.379 298.889 602.539 297.989 602.859 297.109C603.179 296.229 603.646 295.435 604.259 294.729C604.886 294.022 605.652 293.462 606.559 293.049C607.479 292.622 608.532 292.409 609.719 292.409C610.999 292.409 612.132 292.649 613.119 293.129C614.106 293.595 614.899 294.255 615.499 295.109C616.099 295.949 616.452 296.929 616.559 298.049H613.699C613.606 297.422 613.372 296.889 612.999 296.449C612.626 295.995 612.152 295.649 611.579 295.409C611.019 295.169 610.399 295.049 609.719 295.049C609.039 295.049 608.419 295.169 607.859 295.409C607.312 295.649 606.846 295.989 606.459 296.429C606.072 296.869 605.772 297.395 605.559 298.009C605.359 298.622 605.259 299.302 605.259 300.049C605.259 300.862 605.372 301.589 605.599 302.229C605.826 302.869 606.146 303.415 606.559 303.869C606.972 304.309 607.472 304.649 608.059 304.889C608.646 305.115 609.306 305.229 610.039 305.229C611.012 305.229 611.866 305.029 612.599 304.629C613.332 304.215 613.866 303.682 614.199 303.029L613.699 305.329V301.569H616.319V304.809C615.692 305.755 614.839 306.495 613.759 307.029C612.679 307.549 611.439 307.809 610.039 307.809ZM609.579 302.129V300.009H617.539V302.129H609.579ZM626.24 307.429V304.209H625.78V300.629C625.78 300.002 625.626 299.535 625.32 299.229C625.013 298.922 624.54 298.769 623.9 298.769C623.566 298.769 623.166 298.775 622.7 298.789C622.233 298.802 621.76 298.822 621.28 298.849C620.813 298.862 620.393 298.882 620.02 298.909V296.549C620.326 296.522 620.673 296.495 621.06 296.469C621.446 296.442 621.84 296.429 622.24 296.429C622.653 296.415 623.04 296.409 623.4 296.409C624.52 296.409 625.446 296.555 626.18 296.849C626.926 297.142 627.486 297.602 627.86 298.229C628.246 298.855 628.44 299.675 628.44 300.689V307.429H626.24ZM622.74 307.709C621.953 307.709 621.26 307.569 620.66 307.289C620.073 307.009 619.613 306.609 619.28 306.089C618.96 305.569 618.8 304.942 618.8 304.209C618.8 303.409 618.993 302.755 619.38 302.249C619.78 301.742 620.333 301.362 621.04 301.109C621.76 300.855 622.6 300.729 623.56 300.729H626.08V302.389H623.52C622.88 302.389 622.386 302.549 622.04 302.869C621.706 303.175 621.54 303.575 621.54 304.069C621.54 304.562 621.706 304.962 622.04 305.269C622.386 305.575 622.88 305.729 623.52 305.729C623.906 305.729 624.26 305.662 624.58 305.529C624.913 305.382 625.186 305.142 625.4 304.809C625.626 304.462 625.753 303.995 625.78 303.409L626.46 304.189C626.393 304.949 626.206 305.589 625.9 306.109C625.606 306.629 625.193 307.029 624.66 307.309C624.14 307.575 623.5 307.709 622.74 307.709ZM631.417 307.429V296.569H633.617V301.229H633.417C633.417 300.135 633.557 299.222 633.837 298.489C634.117 297.742 634.531 297.182 635.077 296.809C635.637 296.422 636.331 296.229 637.157 296.229H637.277C638.117 296.229 638.811 296.422 639.357 296.809C639.917 297.182 640.331 297.742 640.597 298.489C640.877 299.222 641.017 300.135 641.017 301.229H640.317C640.317 300.135 640.457 299.222 640.737 298.489C641.031 297.742 641.451 297.182 641.997 296.809C642.557 296.422 643.251 296.229 644.077 296.229H644.197C645.037 296.229 645.737 296.422 646.297 296.809C646.857 297.182 647.277 297.742 647.557 298.489C647.851 299.222 647.997 300.135 647.997 301.229V307.429H645.217V300.969C645.217 300.289 645.044 299.749 644.697 299.349C644.351 298.935 643.857 298.729 643.217 298.729C642.577 298.729 642.064 298.942 641.677 299.369C641.291 299.782 641.097 300.342 641.097 301.049V307.429H638.317V300.969C638.317 300.289 638.144 299.749 637.797 299.349C637.451 298.935 636.957 298.729 636.317 298.729C635.677 298.729 635.164 298.942 634.777 299.369C634.391 299.782 634.197 300.342 634.197 301.049V307.429H631.417ZM655.828 307.809C654.895 307.809 654.075 307.649 653.368 307.329C652.675 307.009 652.095 306.582 651.628 306.049C651.175 305.502 650.828 304.895 650.588 304.229C650.361 303.562 650.248 302.882 650.248 302.189V301.809C650.248 301.089 650.361 300.395 650.588 299.729C650.828 299.049 651.175 298.449 651.628 297.929C652.095 297.395 652.668 296.975 653.348 296.669C654.028 296.349 654.815 296.189 655.708 296.189C656.881 296.189 657.861 296.449 658.648 296.969C659.448 297.475 660.048 298.149 660.448 298.989C660.848 299.815 661.048 300.709 661.048 301.669V302.669H651.428V300.969H659.308L658.448 301.809C658.448 301.115 658.348 300.522 658.148 300.029C657.948 299.535 657.641 299.155 657.228 298.889C656.828 298.622 656.321 298.489 655.708 298.489C655.095 298.489 654.575 298.629 654.148 298.909C653.721 299.189 653.395 299.595 653.168 300.129C652.955 300.649 652.848 301.275 652.848 302.009C652.848 302.689 652.955 303.295 653.168 303.829C653.381 304.349 653.708 304.762 654.148 305.069C654.588 305.362 655.148 305.509 655.828 305.509C656.508 305.509 657.061 305.375 657.488 305.109C657.915 304.829 658.188 304.489 658.308 304.089H660.868C660.708 304.835 660.401 305.489 659.948 306.049C659.495 306.609 658.915 307.042 658.208 307.349C657.515 307.655 656.721 307.809 655.828 307.809Z" fill="white"/>
<circle opacity="0.31" cx="23.0516" cy="208.052" r="22.0516" stroke="#FF6C00" stroke-width="2"/>
<g opacity="0.31">
<path d="M26.4088 215.744L18.2422 207.744L26.4088 199.744" stroke="white" stroke-width="2" stroke-linecap="round" stroke-linejoin="round"/>
</g>
<circle cx="1208.05" cy="209.052" r="22.0516" transform="rotate(-180 1208.05 209.052)" stroke="#FF6C00" stroke-width="2"/>
<path d="M1204.74 201.813L1212.91 209.813L1204.74 217.812" stroke="white" stroke-width="2" stroke-linecap="round" stroke-linejoin="round"/>
<path d="M687.611 172.044C683.506 172.758 679.282 177.175 677.683 179.294C670.856 180.335 656.811 182.174 655.251 181.199C653.691 180.224 644.199 66.3662 639.647 9.55939L647.096 0.228516C650.835 2.35769 667.392 6.39534 675.204 8.14802L689.03 17.236C690.848 21.7021 696.495 26.4105 699.092 28.2064L709.473 43.88C709.83 50.3049 713.935 56.0754 715.943 58.1576L720.293 76.3392C718.955 87.4044 720.851 90.6912 721.966 90.9515L720.293 111.252C718.241 113.751 717.876 121.291 717.951 124.749L709.25 145.05C705.681 147.013 703.896 153.007 703.45 155.758L687.611 172.044Z" fill="#C24704"/>
<path fill-rule="evenodd" clip-rule="evenodd" d="M648.647 1.24893C647.983 1.32622 647.585 1.43288 647.537 1.57512C647.16 2.70048 652.947 8.57735 657.601 9.45263C660.786 10.0514 669.777 9.41279 675.672 8.85031C680.747 11.5217 685.539 14.8344 689.978 18.704C686.337 18.6885 683.215 18.8136 681.97 19.2067C678.359 20.3476 674.747 22.4012 678.359 25.1394C681.365 27.4188 686.164 29.8563 699.607 28.6347C703.615 33.5039 707.183 38.9054 710.232 44.744C704.79 45.7317 699.106 47.4956 698.729 50.2393C698.178 54.2553 699.418 57.2368 700.107 58.2256H716.063C718.176 64.2648 719.781 70.6286 720.812 77.2381C716.226 77.7812 708.653 78.9541 707.62 80.8618C705.75 84.3144 707.754 91.4851 709.357 91.4851H722.113C722.143 92.5615 722.158 93.6425 722.158 94.7278C722.158 100.566 721.717 106.28 720.873 111.823C716.696 111.903 711.328 112.252 709.357 113.248C706.118 114.885 703.441 120.206 704.677 124.606L717.951 125.273C715.867 132.593 713.054 139.501 709.617 145.871H697.732C693.329 145.871 690.688 152.373 691.191 152.873C691.473 153.153 697.648 154.553 703.442 155.81C698.859 162.252 693.564 167.928 687.705 172.66C682.462 171.974 676.461 171.319 674.207 171.879C670.182 172.88 663.137 176.381 665.653 177.631C666.787 178.195 672.13 178.838 677.899 179.382C668.528 184.751 658.121 187.902 647.142 188.276V188.313H644.98C644.964 188.313 644.948 188.313 644.933 188.313C644.917 188.313 644.901 188.313 644.885 188.313H613.47V180.22C586.502 165.622 567.707 132.835 567.707 94.7278C567.707 56.6207 586.502 23.8333 613.47 9.23589V1.14258H644.933H647.142V1.18013C647.645 1.19725 648.146 1.2202 648.647 1.24893Z" fill="#FEF302"/>
<path fill-rule="evenodd" clip-rule="evenodd" d="M648.647 0.107001C647.983 0.184762 647.585 0.292072 647.537 0.435184C647.16 1.56741 652.947 7.48016 657.601 8.36078C660.786 8.96321 669.777 8.3207 675.672 7.75479C680.747 10.4425 685.539 13.7754 689.978 17.6686C686.337 17.6531 683.215 17.7789 681.97 18.1744C678.359 19.3223 674.747 21.3884 678.359 24.1433C681.365 26.4366 686.164 28.889 699.607 27.66C703.615 32.5589 707.183 37.9933 710.232 43.8676C704.79 44.8613 699.106 46.636 698.729 49.3964C698.178 53.4369 699.418 56.4367 700.107 57.4315H716.063C718.176 63.5076 719.781 69.9102 720.812 76.5601C716.226 77.1065 708.653 78.2865 707.62 80.2059C705.75 83.6795 707.754 90.8941 709.357 90.8941H722.113C722.143 91.977 722.158 93.0646 722.158 94.1566C722.158 100.031 721.717 105.779 720.873 111.356C716.696 111.436 711.328 111.787 709.357 112.79C706.118 114.437 703.441 119.79 704.677 124.217L717.951 124.888C715.867 132.253 713.054 139.203 709.617 145.612H697.732C693.329 145.612 690.688 152.154 691.191 152.657C691.473 152.939 697.648 154.347 703.442 155.612C698.859 162.092 693.564 167.803 687.705 172.564C682.462 171.875 676.461 171.216 674.207 171.779C670.182 172.785 663.137 176.308 665.653 177.566C666.787 178.133 672.13 178.78 677.899 179.327C668.528 184.729 658.121 187.899 647.142 188.275V188.313H644.98C644.964 188.313 644.948 188.313 644.933 188.313C644.917 188.313 644.901 188.313 644.885 188.313H613.47V180.17C586.502 165.484 567.707 132.496 567.707 94.1566C567.707 55.8168 586.502 22.8292 613.47 8.14272V0H644.933H647.142V0.03778C647.645 0.0550069 648.146 0.0780987 648.647 0.107001Z" fill="url(#paint1_linear_2_5935)"/>
<path d="M692.265 94.1868C692.265 140.258 657.847 177.607 615.39 177.607C572.933 177.607 538.514 140.258 538.514 94.1868C538.514 48.1151 572.933 10.7666 615.39 10.7666C657.847 10.7666 692.265 48.1151 692.265 94.1868Z" fill="url(#paint2_radial_2_5935)"/>
<path fill-rule="evenodd" clip-rule="evenodd" d="M615.323 188.313C664.102 188.313 703.646 146.158 703.646 94.1566C703.646 42.1553 664.102 0 615.323 0C566.543 0 527 42.1553 527 94.1566C527 146.158 566.543 188.313 615.323 188.313ZM611.684 172.92C651.308 172.92 683.43 137.643 683.43 94.1263C683.43 50.61 651.308 15.333 611.684 15.333C572.06 15.333 539.938 50.61 539.938 94.1263C539.938 137.643 572.06 172.92 611.684 172.92Z" fill="url(#paint3_linear_2_5935)"/>
<g filter="url(#filter0_f_2_5935)">
<path d="M577.678 54.7197L577.531 57.2901L579.084 58.8189L576.913 59.009L575.389 61.084L575.536 58.5137L573.984 56.9849L576.154 56.7947L577.678 54.7197Z" fill="white" fill-opacity="0.8"/>
<path d="M591.052 164.18L591.07 167.943L593.612 170.127L590.279 170.476L588.123 173.561L588.105 169.797L585.563 167.613L588.896 167.264L591.052 164.18Z" fill="white" fill-opacity="0.7"/>
<path d="M683.093 28.7666L684.421 32.3532L688.007 33.6804L684.421 35.0076L683.093 38.5942L681.766 35.0076L678.18 33.6804L681.766 32.3532L683.093 28.7666Z" fill="white"/>
</g>
<path d="M660.802 92.0044C656.56 72.8205 650.175 62.5813 640.704 59.7845C638.714 59.2004 636.648 58.9086 634.574 58.9182C631.832 58.9182 629.443 59.5864 626.917 60.2946C623.873 61.1489 620.415 62.1192 615.372 62.1192C610.33 62.1192 606.869 61.1509 603.819 60.2966C601.291 59.5864 598.905 58.9182 596.171 58.9182C594.025 58.9108 591.889 59.2016 589.824 59.7825C580.403 62.5673 574.023 72.8025 569.718 91.9924C565.09 112.643 567.368 125.681 576.107 128.706C577.305 129.128 578.565 129.346 579.835 129.35C585.822 129.35 590.622 124.362 593.902 120.279C597.609 115.658 601.947 113.313 615.372 113.313C627.363 113.313 632.326 114.939 636.612 120.279C639.306 123.636 641.852 125.985 644.393 127.463C647.771 129.428 651.147 129.864 654.425 128.738C659.59 126.975 662.55 122.316 663.226 114.885C663.74 109.188 662.948 101.703 660.802 92.0044ZM605.771 90.928H599.371V97.33C599.371 98.179 599.034 98.9931 598.433 99.5934C597.833 100.194 597.019 100.531 596.171 100.531C595.322 100.531 594.508 100.194 593.908 99.5934C593.307 98.9931 592.97 98.179 592.97 97.33V90.928H586.57C585.721 90.928 584.907 90.5908 584.307 89.9905C583.707 89.3902 583.369 88.576 583.369 87.7271C583.369 86.8781 583.707 86.0639 584.307 85.4636C584.907 84.8633 585.721 84.5261 586.57 84.5261H592.97V78.1241C592.97 77.2752 593.307 76.461 593.908 75.8607C594.508 75.2604 595.322 74.9231 596.171 74.9231C597.019 74.9231 597.833 75.2604 598.433 75.8607C599.034 76.461 599.371 77.2752 599.371 78.1241V84.5261H605.771C606.62 84.5261 607.434 84.8633 608.034 85.4636C608.634 86.0639 608.972 86.8781 608.972 87.7271C608.972 88.576 608.634 89.3902 608.034 89.9905C607.434 90.5908 606.62 90.928 605.771 90.928ZM622.573 91.7283C621.782 91.7283 621.008 91.4936 620.35 91.054C619.692 90.6143 619.18 89.9894 618.877 89.2583C618.574 88.5271 618.495 87.7226 618.649 86.9465C618.804 86.1703 619.185 85.4573 619.744 84.8978C620.304 84.3382 621.016 83.9571 621.792 83.8027C622.568 83.6483 623.373 83.7276 624.104 84.0304C624.835 84.3332 625.459 84.8461 625.899 85.5041C626.338 86.1621 626.573 86.9357 626.573 87.7271C626.573 88.7882 626.152 89.806 625.401 90.5564C624.651 91.3067 623.634 91.7283 622.573 91.7283ZM631.374 100.531C630.582 100.531 629.808 100.296 629.15 99.856C628.492 99.4159 627.979 98.7904 627.677 98.0587C627.374 97.3269 627.296 96.5219 627.451 95.7455C627.606 94.969 627.988 94.2561 628.548 93.6969C629.109 93.1377 629.823 92.7575 630.599 92.6042C631.376 92.4509 632.181 92.5316 632.911 92.836C633.642 93.1404 634.266 93.6548 634.705 94.3141C635.143 94.9734 635.376 95.748 635.374 96.5398C635.371 97.5992 634.949 98.6144 634.199 99.3626C633.449 100.111 632.433 100.531 631.374 100.531ZM631.374 82.9256C630.582 82.9256 629.809 82.6909 629.151 82.2513C628.493 81.8116 627.98 81.1867 627.678 80.4556C627.375 79.7244 627.296 78.9199 627.45 78.1437C627.604 77.3676 627.985 76.6546 628.545 76.0951C629.104 75.5355 629.817 75.1544 630.593 75C631.369 74.8456 632.173 74.9249 632.904 75.2277C633.635 75.5305 634.26 76.0434 634.7 76.7014C635.139 77.3594 635.374 78.133 635.374 78.9244C635.374 79.9855 634.952 81.0033 634.202 81.7536C633.452 82.504 632.434 82.9256 631.374 82.9256ZM640.174 91.7283C639.383 91.7283 638.61 91.4936 637.952 91.054C637.294 90.6143 636.781 89.9894 636.478 89.2583C636.176 88.5271 636.096 87.7226 636.251 86.9465C636.405 86.1703 636.786 85.4573 637.346 84.8978C637.905 84.3382 638.618 83.9571 639.394 83.8027C640.17 83.6483 640.974 83.7276 641.705 84.0304C642.436 84.3332 643.061 84.8461 643.5 85.5041C643.94 86.1621 644.175 86.9357 644.175 87.7271C644.175 88.7882 643.753 89.806 643.003 90.5564C642.253 91.3067 641.235 91.7283 640.174 91.7283Z" fill="#C24704"/>
<path d="M657.961 90.9575C653.718 71.7736 647.334 61.5345 637.863 58.7376C635.872 58.1535 633.807 57.8617 631.732 57.8713C628.99 57.8713 626.602 58.5395 624.076 59.2477C621.032 60.102 617.573 61.0723 612.531 61.0723C607.488 61.0723 604.028 60.104 600.978 59.2497C598.45 58.5395 596.063 57.8713 593.329 57.8713C591.184 57.8639 589.048 58.1548 586.983 58.7356C577.562 61.5204 571.181 71.7556 566.877 90.9455C562.249 111.596 564.527 124.634 573.266 127.659C574.463 128.081 575.724 128.299 576.994 128.303C582.98 128.303 587.781 123.315 591.061 119.232C594.767 114.611 599.106 112.266 612.531 112.266C624.522 112.266 629.484 113.893 633.771 119.232C636.465 122.589 639.011 124.938 641.551 126.416C644.93 128.381 648.306 128.817 651.584 127.691C656.749 125.928 659.709 121.269 660.385 113.839C660.899 108.141 660.107 100.656 657.961 90.9575ZM602.93 89.8812H596.53V96.2831C596.53 97.1321 596.192 97.9463 595.592 98.5466C594.992 99.1469 594.178 99.4841 593.329 99.4841C592.48 99.4841 591.666 99.1469 591.066 98.5466C590.466 97.9463 590.129 97.1321 590.129 96.2831V89.8812H583.728C582.88 89.8812 582.066 89.5439 581.465 88.9436C580.865 88.3433 580.528 87.5291 580.528 86.6802C580.528 85.8312 580.865 85.017 581.465 84.4167C582.066 83.8164 582.88 83.4792 583.728 83.4792H590.129V77.0772C590.129 76.2283 590.466 75.4141 591.066 74.8138C591.666 74.2135 592.48 73.8762 593.329 73.8762C594.178 73.8762 594.992 74.2135 595.592 74.8138C596.192 75.4141 596.53 76.2283 596.53 77.0772V83.4792H602.93C603.779 83.4792 604.593 83.8164 605.193 84.4167C605.793 85.017 606.13 85.8312 606.13 86.6802C606.13 87.5291 605.793 88.3433 605.193 88.9436C604.593 89.5439 603.779 89.8812 602.93 89.8812ZM619.731 90.6814C618.94 90.6814 618.167 90.4467 617.509 90.0071C616.851 89.5674 616.338 88.9425 616.036 88.2114C615.733 87.4803 615.654 86.6757 615.808 85.8996C615.962 85.1234 616.343 84.4105 616.903 83.8509C617.462 83.2913 618.175 82.9102 618.951 82.7558C619.727 82.6014 620.531 82.6807 621.262 82.9835C621.993 83.2864 622.618 83.7992 623.058 84.4572C623.497 85.1152 623.732 85.8888 623.732 86.6802C623.732 87.7414 623.31 88.7591 622.56 89.5095C621.81 90.2599 620.792 90.6814 619.731 90.6814ZM628.532 99.4841C627.741 99.4841 626.967 99.2492 626.309 98.8091C625.651 98.369 625.138 97.7435 624.835 97.0118C624.533 96.2801 624.454 95.475 624.609 94.6986C624.765 93.9222 625.147 93.2092 625.707 92.6501C626.268 92.0909 626.981 91.7106 627.758 91.5573C628.535 91.4041 629.339 91.4847 630.07 91.7891C630.801 92.0935 631.425 92.6079 631.863 93.2672C632.302 93.9265 632.535 94.7011 632.533 95.4929C632.53 96.5523 632.107 97.5675 631.357 98.3157C630.607 99.0639 629.591 99.4841 628.532 99.4841ZM628.532 81.8787C627.741 81.8787 626.968 81.644 626.31 81.2044C625.652 80.7647 625.139 80.1398 624.836 79.4087C624.534 78.6776 624.454 77.873 624.609 77.0969C624.763 76.3207 625.144 75.6078 625.704 75.0482C626.263 74.4886 626.976 74.1075 627.752 73.9531C628.528 73.7987 629.332 73.878 630.063 74.1808C630.794 74.4837 631.419 74.9965 631.858 75.6545C632.298 76.3125 632.533 77.0861 632.533 77.8775C632.533 78.9387 632.111 79.9564 631.361 80.7068C630.611 81.4571 629.593 81.8787 628.532 81.8787ZM637.333 90.6814C636.542 90.6814 635.768 90.4467 635.11 90.0071C634.453 89.5674 633.94 88.9425 633.637 88.2114C633.334 87.4803 633.255 86.6757 633.409 85.8996C633.564 85.1234 633.945 84.4105 634.504 83.8509C635.064 83.2913 635.777 82.9102 636.553 82.7558C637.329 82.6014 638.133 82.6807 638.864 82.9835C639.595 83.2864 640.22 83.7992 640.659 84.4572C641.099 85.1152 641.333 85.8888 641.333 86.6802C641.333 87.7414 640.912 88.7591 640.162 89.5095C639.411 90.2599 638.394 90.6814 637.333 90.6814Z" fill="url(#paint4_linear_2_5935)"/>
<defs>
<filter id="filter0_f_2_5935" x="572.983" y="27.7666" width="116.024" height="146.794" filterUnits="userSpaceOnUse" color-interpolation-filters="sRGB">
<feFlood flood-opacity="0" result="BackgroundImageFix"/>
<feBlend mode="normal" in="SourceGraphic" in2="BackgroundImageFix" result="shape"/>
<feGaussianBlur stdDeviation="0.5" result="effect1_foregroundBlur_2_5935"/>
</filter>
<linearGradient id="paint0_linear_2_5935" x1="1061.24" y1="344.947" x2="968.713" y2="344.947" gradientUnits="userSpaceOnUse">
<stop stop-color="white"/>
<stop offset="1" stop-color="#B5B5B5" stop-opacity="0"/>
</linearGradient>
<linearGradient id="paint1_linear_2_5935" x1="644.933" y1="0" x2="644.933" y2="188.313" gradientUnits="userSpaceOnUse">
<stop stop-color="#CE6400"/>
<stop offset="0.0449805" stop-color="#DF8401"/>
<stop offset="0.888349" stop-color="#E59001"/>
<stop offset="1" stop-color="#F39700" stop-opacity="0"/>
</linearGradient>
<radialGradient id="paint2_radial_2_5935" cx="0" cy="0" r="1" gradientUnits="userSpaceOnUse" gradientTransform="translate(584.819 44.076) rotate(64.1013) scale(137.581 131.081)">
<stop stop-color="#F0B300"/>
<stop offset="0.322917" stop-color="#F0B300"/>
<stop offset="0.520833" stop-color="#EAA502"/>
<stop offset="1" stop-color="#EAA502"/>
</radialGradient>
<linearGradient id="paint3_linear_2_5935" x1="554.297" y1="56.8503" x2="667.991" y2="159.352" gradientUnits="userSpaceOnUse">
<stop stop-color="#FFF301"/>
<stop offset="0.139917" stop-color="#FFF301"/>
<stop offset="0.144033" stop-color="#FDDD00"/>
<stop offset="0.29832" stop-color="#FDDD00"/>
<stop offset="0.300796" stop-color="#FFF301"/>
<stop offset="0.548742" stop-color="#FFF301"/>
<stop offset="0.552564" stop-color="#FDDD00"/>
<stop offset="0.71816" stop-color="#FDDD00"/>
<stop offset="0.723753" stop-color="#FEF300"/>
<stop offset="1" stop-color="#FEF200"/>
</linearGradient>
<linearGradient id="paint4_linear_2_5935" x1="574.906" y1="52.5635" x2="660.313" y2="130.056" gradientUnits="userSpaceOnUse">
<stop stop-color="#FFF301"/>
<stop offset="0.139917" stop-color="#FFF301"/>
<stop offset="0.144033" stop-color="#FDDD00"/>
<stop offset="0.29832" stop-color="#FDDD00"/>
<stop offset="0.300796" stop-color="#FFF301"/>
<stop offset="0.548742" stop-color="#FFF301"/>
<stop offset="0.552564" stop-color="#FDDD00"/>
<stop offset="0.71816" stop-color="#FDDD00"/>
<stop offset="0.723753" stop-color="#FEF300"/>
<stop offset="1" stop-color="#FEF200"/>
</linearGradient>
</defs>
</svg>
