<svg width="21" height="21" viewBox="0 0 21 21" fill="none" xmlns="http://www.w3.org/2000/svg">
<path d="M14.8035 6.86914C16.4207 6.86914 17.9716 7.51155 19.1152 8.65506C20.2587 9.79856 20.9011 11.3495 20.9011 12.9666V20.0804H16.836V12.9666C16.836 12.4276 16.6219 11.9106 16.2407 11.5294C15.8595 11.1483 15.3425 10.9341 14.8035 10.9341C14.2644 10.9341 13.7474 11.1483 13.3662 11.5294C12.9851 11.9106 12.7709 12.4276 12.7709 12.9666V20.0804H8.70581V12.9666C8.70581 11.3495 9.34824 9.79856 10.4918 8.65506C11.6353 7.51155 13.1863 6.86914 14.8035 6.86914Z" fill="white"/>
<path d="M4.64087 7.88574H0.575684V20.0807H4.64087V7.88574Z" fill="white"/>
<path d="M2.60815 4.83844C3.73066 4.83844 4.64062 3.92846 4.64062 2.80594C4.64062 1.68342 3.73066 0.773438 2.60815 0.773438C1.48565 0.773438 0.575684 1.68342 0.575684 2.80594C0.575684 3.92846 1.48565 4.83844 2.60815 4.83844Z" fill="white"/>
</svg>
