<svg width="22" height="19" viewBox="0 0 22 19" fill="none" xmlns="http://www.w3.org/2000/svg">
<path d="M15.7504 4.77296L6.78507 10.7439C6.55891 10.8944 6.31211 11.01 6.05274 11.0868C5.52616 11.2421 4.96588 11.2321 4.44499 11.0579L0.442757 9.7187C0.282565 9.66505 0.149364 9.54954 0.0716997 9.39694C-0.00260235 9.24994 -0.0198913 9.0798 0.023276 8.92039L0.0303493 8.89432C0.0563785 8.79905 0.10317 8.71101 0.167232 8.63675C0.231293 8.5625 0.310967 8.50396 0.400318 8.46549L19.7983 0.131238C19.8618 0.103659 19.9273 0.081213 19.9942 0.0641105L20.0801 0.0419185C20.2807 -0.0095465 20.4902 -0.0136788 20.6926 0.0298338C20.895 0.0733465 21.085 0.163359 21.2482 0.293023C21.4114 0.422687 21.5434 0.588587 21.6342 0.778101C21.725 0.967615 21.7722 1.17575 21.7722 1.38667C21.7723 1.45576 21.7672 1.52475 21.757 1.59305L19.4626 17.1265C19.4294 17.352 19.3505 17.568 19.231 17.7607C19.1115 17.9534 18.9539 18.1187 18.7684 18.246C18.4998 18.4306 18.1829 18.5286 17.859 18.5271C17.5351 18.5256 17.2192 18.4248 16.9522 18.2377L9.969 13.3424C9.83087 13.2456 9.71747 13.1164 9.63825 12.9658C9.55903 12.8151 9.51629 12.6474 9.51361 12.4764C9.51137 12.3307 9.5383 12.186 9.59274 12.0512C9.64719 11.9165 9.72801 11.7944 9.83027 11.6926L16.2194 5.33328C16.2788 5.27406 16.3161 5.1956 16.3249 5.11137C16.3308 5.05701 16.3246 5.00199 16.3068 4.95041C16.289 4.89882 16.26 4.85199 16.222 4.81339C16.184 4.7748 16.138 4.74544 16.0873 4.72749C16.0366 4.70954 15.9827 4.70347 15.9294 4.70972H15.9049C15.8492 4.71815 15.7963 4.73981 15.7504 4.77296Z" fill="white"/>
</svg>
