<svg width="17" height="17" viewBox="0 0 17 17" fill="none" xmlns="http://www.w3.org/2000/svg">
<path d="M14.0806 6.55859H7.7804C7.00719 6.55859 6.38037 7.18539 6.38037 7.95859V14.2586C6.38037 15.0318 7.00719 15.6586 7.7804 15.6586H14.0806C14.8538 15.6586 15.4806 15.0318 15.4806 14.2586V7.95859C15.4806 7.18539 14.8538 6.55859 14.0806 6.55859Z" stroke="#FF6C00" stroke-width="1.6" stroke-linecap="round" stroke-linejoin="round"/>
<path d="M3.58049 10.7582H2.88048C2.50918 10.7582 2.15308 10.6107 1.89052 10.3481C1.62797 10.0856 1.48047 9.72948 1.48047 9.35818V3.0582C1.48047 2.6869 1.62797 2.3308 1.89052 2.06825C2.15308 1.8057 2.50918 1.6582 2.88048 1.6582H9.18055C9.55186 1.6582 9.90796 1.8057 10.1705 2.06825C10.4331 2.3308 10.5806 2.6869 10.5806 3.0582V3.7582" stroke="#FF6C00" stroke-width="1.6" stroke-linecap="round" stroke-linejoin="round"/>
</svg>
